<?xml version="1.0" encoding="UTF-8"?>
<svg width="50px" height="50px" viewBox="0 0 50 50" version="1.1" xmlns="http://www.w3.org/2000/svg" xmlns:xlink="http://www.w3.org/1999/xlink">
    <!-- Generator: Sketch 55.2 (78181) - https://sketchapp.com -->
    <title>1</title>
    <desc>Created with Sketch.</desc>
    <g id="1" stroke="none" stroke-width="1" fill="none" fill-rule="evenodd">
        <g id="money" transform="translate(1.000000, 1.000000)" fill-rule="nonzero">
            <g id="Group" transform="translate(13.403799, 11.680453)">
                <path d="M20.7119362,37.3391544 L14.9674509,37.3391544 C14.1745922,37.3391544 13.5313296,36.6962657 13.5313296,35.9030331 L13.5313296,9.09543505 C13.5313296,8.30220244 14.1745922,7.65931373 14.9674509,7.65931373 L20.7119362,7.65931373 C21.5051689,7.65931373 22.1480575,8.30220244 22.1480575,9.09543505 L22.1480575,35.9030331 C22.1480575,36.6962657 21.5051689,37.3391544 20.7119362,37.3391544 Z" id="Path" fill="#FF833B"></path>
                <path d="M7.24455892,37.3391544 L1.50007363,37.3391544 C0.706840916,37.3391544 0.0639523016,36.6962657 0.0639523016,35.9030331 L0.0639523016,16.7547488 C0.0639523016,15.9615162 0.706840916,15.3186275 1.50007363,15.3186275 L7.24455892,15.3186275 C8.03741757,15.3186275 8.68068024,15.9615162 8.68068024,16.7547488 L8.68068024,35.9030331 C8.68068024,36.6962657 8.03741757,37.3391544 7.24455892,37.3391544 Z" id="Path" fill="#FF833B"></path>
                <path d="M34.1796875,37.3391544 L28.4352022,37.3391544 C27.6419696,37.3391544 26.9990809,36.6962657 26.9990809,35.9030331 L26.9990809,1.43612132 C26.9990809,0.64288871 27.6419696,0 28.4352022,0 L34.1796875,0 C34.9729201,0 35.6158088,0.64288871 35.6158088,1.43612132 L35.6158088,35.9030331 C35.6158088,36.6962657 34.9729201,37.3391544 34.1796875,37.3391544 Z" id="Path" fill="#00CA33"></path>
            </g>
            <path d="M34.1157352,49.0196078 L31.2434926,49.0196078 L31.2434926,19.3397672 L34.1157352,19.3397672 C34.9089679,19.3397672 35.5518565,19.9826559 35.5518565,20.7758885 L35.5518565,47.5834865 C35.5518565,48.3767191 34.9089679,49.0196078 34.1157352,49.0196078 Z" id="Path" fill="#FF5F02"></path>
            <path d="M20.6483579,49.0196078 L17.7761153,49.0196078 L17.7761153,26.9990809 L20.6483579,26.9990809 C21.4412166,26.9990809 22.0844793,27.6419696 22.0844793,28.4352022 L22.0844793,47.5834865 C22.0844793,48.3767191 21.4412166,49.0196078 20.6483579,49.0196078 Z" id="Path" fill="#FF5F02"></path>
            <path d="M47.5834865,49.0196078 L44.7112439,49.0196078 L44.7112439,11.6804534 L47.5834865,11.6804534 C48.3767191,11.6804534 49.0196078,12.3233421 49.0196078,13.1165748 L49.0196078,47.5834865 C49.0196078,48.3767191 48.3767191,49.0196078 47.5834865,49.0196078 Z" id="Path" fill="#2DB124"></path>
            <path d="M29.1629866,5.11992207 L23.4185013,0.332850988 C23.4177533,0.332103056 23.4166313,0.331355124 23.4158834,0.330607096 C23.4065336,0.323127298 23.3964359,0.316395527 23.3870862,0.308915633 C23.3624028,0.289468252 23.3377194,0.27002068 23.3119142,0.252443225 C23.2980766,0.243093405 23.2834909,0.234117647 23.2689053,0.225141889 C23.24684,0.210930319 23.2244006,0.197092716 23.2019612,0.184377011 C23.1858796,0.175027286 23.1690501,0.166799556 23.1525945,0.158197763 C23.1305291,0.146978018 23.1080897,0.136132334 23.0856503,0.126034582 C23.0684467,0.118180817 23.0508692,0.110701019 23.0329177,0.103595186 C23.0097303,0.0942454619 22.986169,0.0860177313 22.9626076,0.077789905 C22.9450301,0.0718060662 22.9278265,0.0658222273 22.910249,0.0605863205 C22.8799558,0.0516105622 22.8492886,0.0441308594 22.8186215,0.0370250268 C22.8074018,0.0344070734 22.796182,0.031041188 22.7845884,0.0287972005 C22.7419535,0.020195504 22.6993187,0.0138376034 22.6563098,0.00897575827 C22.6435941,0.0078537837 22.6308785,0.00710581342 22.6181629,0.00598383885 C22.5852518,0.00336590456 22.5527147,0.00149595971 22.5198035,0.00112197457 C22.5126977,0.00112197457 22.5059658,0 22.4992341,0 C22.4913803,0 22.4839005,0.00112197457 22.4764207,0.00112197457 C22.4442575,0.00149595971 22.4124684,0.00336590456 22.3806793,0.00598383885 C22.3664676,0.00710581342 22.35263,0.0078537837 22.3387924,0.00934974341 C22.3028894,0.0134636374 22.2673603,0.0190735103 22.2318312,0.0258052811 C22.2232295,0.0273012408 22.2146278,0.0284232345 22.2063999,0.0299191942 C22.1652611,0.0385209865 22.1244962,0.0493666705 22.0837312,0.0617083142 C22.0669017,0.0665701593 22.0504462,0.0729280599 22.0339906,0.078537837 C22.0096813,0.0867656633 21.9853719,0.0953674556 21.9614365,0.105091146 C21.943485,0.112196978 21.9259075,0.120424709 21.907956,0.128278569 C21.8862646,0.138376225 21.8645732,0.148473977 21.8428817,0.159693723 C21.8256782,0.168669481 21.8081007,0.178019206 21.7908971,0.187742992 C21.7699537,0.199710669 21.7493843,0.212426279 21.7288148,0.225515951 C21.7127332,0.235613703 21.6962777,0.245711359 21.6809441,0.256931104 C21.6753342,0.260670956 21.6697245,0.263662875 21.6644885,0.267402822 L14.962589,5.0544739 C14.3170824,5.51560346 14.1678605,6.41243126 14.62899,7.05793792 C14.9091085,7.45025333 15.3504166,7.65931373 15.7988305,7.65931373 C16.0875507,7.65931373 16.3792629,7.57254806 16.6320801,7.39153694 L20.8450766,4.38241402 C20.2287412,8.51014084 18.3198966,12.3162363 15.3182535,15.3178795 C11.6135092,19.0226237 6.68320006,21.0631127 1.43612132,21.0631127 C0.64288871,21.0631127 0,21.7060015 0,22.4992341 C0,23.2924667 0.64288871,23.9353554 1.43612132,23.9353554 C7.45025333,23.9353554 13.1019891,21.5964223 17.3490187,17.3490187 C20.9030451,13.7949925 23.1196834,9.25737266 23.7491085,4.34725892 L27.3244522,7.32646274 C27.9336817,7.83396705 28.8391113,7.75168926 29.3469897,7.1424596 C29.854868,6.53323003 29.7725902,5.62780044 29.1629866,5.11992207 Z" id="Path" fill="#0A0A48"></path>
            <path d="M4.30836397,38.4880515 C3.51662732,38.4880515 2.87224265,37.8436668 2.87224265,37.0519301 C2.87224265,36.2601935 3.51662732,35.6158088 4.30836397,35.6158088 L7.18060662,35.6158088 C7.97383923,35.6158088 8.61672794,34.9729201 8.61672794,34.1796875 C8.61672794,33.3864549 7.97383923,32.7435662 7.18060662,32.7435662 L5.74448529,32.7435662 L5.74448529,32.2648591 C5.74448529,31.4716265 5.10159658,30.8287377 4.30836397,30.8287377 C3.51513136,30.8287377 2.87224265,31.4716265 2.87224265,32.2648591 L2.87224265,32.9903995 C1.20050762,33.5835476 0,35.1797365 0,37.0519301 C0,39.4275142 1.93277995,41.3602941 4.30836397,41.3602941 C5.10010062,41.3602941 5.74448529,42.0046788 5.74448529,42.7964154 C5.74448529,43.5881521 5.10010062,44.2325368 4.30836397,44.2325368 L1.43612132,44.2325368 C0.64288871,44.2325368 0,44.8754255 0,45.6686581 C0,46.4618907 0.64288871,47.1047794 1.43612132,47.1047794 L2.87224265,47.1047794 L2.87224265,47.5834865 C2.87224265,48.3767191 3.51513136,49.0196078 4.30836397,49.0196078 C5.10159658,49.0196078 5.74448529,48.3767191 5.74448529,47.5834865 L5.74448529,46.8579461 C7.41622032,46.264798 8.61672794,44.6686091 8.61672794,42.7964154 C8.61672794,40.4208314 6.68394799,38.4880515 4.30836397,38.4880515 Z" id="Path" fill="#FFD500"></path>
            <path d="M7.18060662,35.6158088 C7.97383923,35.6158088 8.61672794,34.9729201 8.61672794,34.1796875 C8.61672794,33.3864549 7.97383923,32.7435662 7.18060662,32.7435662 L5.74448529,32.7435662 L5.74448529,32.2648591 C5.74448529,31.4716265 5.10159658,30.8287377 4.30836397,30.8287377 L4.30836397,35.6158088 L7.18060662,35.6158088 Z" id="Path" fill="#FFC300"></path>
            <path d="M4.30836397,38.4880515 L4.30836397,41.3602941 C5.10010062,41.3602941 5.74448529,42.0046788 5.74448529,42.7964154 C5.74448529,43.5881521 5.10010062,44.2325368 4.30836397,44.2325368 L4.30836397,49.0196078 C5.10159658,49.0196078 5.74448529,48.3767191 5.74448529,47.5834865 L5.74448529,46.8579461 C7.41622032,46.264798 8.61672794,44.6686091 8.61672794,42.7964154 C8.61672794,40.4208314 6.68394799,38.4880515 4.30836397,38.4880515 Z" id="Path" fill="#FFC300"></path>
        </g>
    </g>
</svg>