<?xml version="1.0" encoding="UTF-8"?>
<svg width="50px" height="50px" viewBox="0 0 50 50" version="1.1" xmlns="http://www.w3.org/2000/svg" xmlns:xlink="http://www.w3.org/1999/xlink">
    <!-- Generator: Sketch 55.2 (78181) - https://sketchapp.com -->
    <title>2</title>
    <desc>Created with Sketch.</desc>
    <g id="2" stroke="none" stroke-width="1" fill="none" fill-rule="evenodd">
        <g id="research" fill-rule="nonzero">
            <path d="M18.6639376,31.2392788 L15.562963,28.1383041 L1.282846,42.4153996 C-0.427582846,44.1258285 -0.427582846,46.9070175 1.282846,48.6174464 C2.99805068,50.3326511 5.77124756,50.3310916 7.48489279,48.6174464 L21.7650097,34.3403509 L18.6639376,31.2392788 Z" id="Path" fill="#FFDA2D"></path>
            <path d="M7.48479532,48.6174464 L21.7649123,34.3403509 L18.6639376,31.2393762 L1.28274854,48.6175439 C2.99805068,50.3326511 5.77124756,50.3309942 7.48479532,48.6174464 L7.48479532,48.6174464 Z" id="Path" fill="#FF9100"></path>
            <circle id="Oval" fill="#596C76" cx="30.8966862" cy="19.0065302" r="18.9967836"></circle>
            <path d="M44.3294347,32.4392788 C51.7634503,25.0052632 51.7589669,13.0033138 44.3294347,5.57378168 L17.4639376,32.4392788 C24.8979532,39.8732943 36.8999025,39.8688109 44.3294347,32.4392788 Z" id="Path" fill="#465A61"></path>
            <circle id="Oval" fill="#F2F2F2" cx="30.8966862" cy="19.0065302" r="16.0743665"></circle>
            <path d="M42.262963,30.372807 C48.5492203,24.0865497 48.5531189,13.9304094 42.262963,7.64025341 L19.5304094,30.372807 C25.8166667,36.6590643 35.972807,36.6630604 42.262963,30.372807 Z" id="Path" fill="#DAEDFF"></path>
            <path d="M38.2066277,26.3164717 L33.8206628,26.3164717 L30.8966862,24.3396686 L30.8966862,17.5445419 L38.2066277,17.5445419 C39.0140351,17.5445419 39.668616,18.1991228 39.668616,19.0065302 L39.668616,24.8544834 C39.668616,25.6618908 39.0140351,26.3164717 38.2066277,26.3164717 Z" id="Path" fill="#FDBF00"></path>
            <path d="M23.5867446,14.6205653 C22.7793372,14.6205653 22.1247563,15.2751462 22.1247563,16.0825536 L22.1247563,24.8544834 C22.1247563,25.6618908 22.7793372,26.3164717 23.5867446,26.3164717 L27.9727096,26.3164717 L30.8966862,24.2778752 L30.8966862,19.0065302 L30.8966862,14.6205653 L23.5867446,14.6205653 Z" id="Path" fill="#1FCEFC"></path>
            <polygon id="Path" fill="#4B97F7" points="30.8966862 24.2778752 30.8966862 19.0065302 23.5867446 26.3164717 27.9727096 26.3164717"></polygon>
            <path d="M32.3586745,8.77261209 L29.4346979,8.77261209 C28.6272904,8.77261209 27.9727096,9.42719298 27.9727096,10.2346004 L27.9727096,21.9305068 L27.9727096,26.3164717 L33.8206628,26.3164717 L33.8206628,16.0825536 L33.8206628,10.2346004 C33.8206628,9.42719298 33.1660819,8.77261209 32.3586745,8.77261209 Z" id="Path" fill="#FE810D"></path>
            <polygon id="Path" fill="#FF495A" points="33.8206628 26.3164717 33.8206628 16.0825536 27.9727096 21.9305068 27.9727096 26.3164717"></polygon>
        </g>
    </g>
</svg>