<?xml version="1.0" encoding="UTF-8"?>
<svg width="50px" height="50px" viewBox="0 0 50 50" version="1.1" xmlns="http://www.w3.org/2000/svg" xmlns:xlink="http://www.w3.org/1999/xlink">
    <!-- Generator: Sketch 55.2 (78181) - https://sketchapp.com -->
    <title>3</title>
    <desc>Created with Sketch.</desc>
    <g id="3" stroke="none" stroke-width="1" fill="none" fill-rule="evenodd">
        <g id="review" fill-rule="nonzero">
            <path d="M17.3259735,5.01060488 C17.1504975,4.48303223 16.6812896,4.07295225 16.1247254,4.01420596 L13.048172,3.54537969 L11.6710663,0.76179502 C11.4074707,0.263977051 10.879898,0 10.3527069,0 C9.82551572,0 9.29794316,0.263977051 9.03434756,0.76179502 L7.6572418,3.54537969 L4.58068848,4.01420596 C4.02412412,4.07295225 3.55491641,4.48303223 3.37944033,5.01060488 C3.20358281,5.537796 3.35006719,6.1237335 3.76014707,6.50482178 L5.98716738,8.6730957 L5.45959473,11.7492676 C5.3714752,12.3062134 5.6060791,12.8627777 6.04553223,13.1851196 C6.5143585,13.5368348 7.100296,13.5662079 7.59849551,13.3026123 L10.3527069,11.8373871 L13.1069184,13.3026123 C14.1910553,13.8591767 15.4506684,12.9508973 15.2454376,11.7492676 L14.7182465,8.6730957 L16.9448853,6.50482178 C17.3553467,6.1237335 17.5018311,5.537796 17.3259735,5.01060488 Z" id="Path" fill="#FFD400"></path>
            <path d="M37.8360748,5.01060488 C37.6602173,4.48303223 37.191391,4.07295225 36.6348267,4.01420596 L33.5582733,3.54537969 L32.1811676,0.76179502 C31.9175721,0.263977051 31.3899994,0 30.8628082,0 C30.3356171,0 29.8080444,0.263977051 29.5440674,0.76179502 L28.1673432,3.54537969 L25.0907898,4.01420596 C24.5338439,4.07295225 24.0650177,4.48303223 23.8891602,5.01060488 C23.7136841,5.537796 23.8601685,6.1237335 24.2702484,6.50482178 L26.4968872,8.6730957 L25.9696961,11.7492676 C25.8815766,12.3062134 26.1161805,12.8627777 26.5556336,13.1851196 C26.9950867,13.5368348 27.6103974,13.5662079 28.1085968,13.3026123 L30.8628082,11.8373871 L33.6170196,13.3026123 C33.8512421,13.4197235 34.0854645,13.4780884 34.3200684,13.4780884 C34.6130371,13.4780884 34.9060059,13.3903504 35.1696015,13.1851196 C35.609436,12.8627777 35.8436584,12.3062134 35.755539,11.7492676 L35.2283478,8.6730957 L37.4549865,6.50482178 C37.865448,6.1237335 38.0119324,5.537796 37.8360748,5.01060488 Z" id="Path" fill="#FFD400"></path>
            <path d="M48.733902,18.762207 L45.6687928,18.2929992 L44.2920685,15.5097961 C44.0280914,15.0115967 43.5009003,14.7480011 42.9733276,14.7480011 C42.4461365,14.7480011 41.9185639,15.0115967 41.6549683,15.5097961 L40.2778625,18.2929992 L37.2013092,18.762207 C36.6447449,18.8205719 36.1759186,19.2306519 36.000061,19.7582245 C35.8242035,20.2854156 35.9706879,20.8713531 36.3807678,21.2524414 L38.6077881,23.4207153 L38.0802154,26.4972687 C37.8753662,27.6985168 39.1349793,28.6067963 40.2191162,28.0502319 L42.9733276,26.5850067 L45.7275391,28.0502319 C46.811676,28.6067963 48.0716705,27.6985168 47.8664398,26.4972687 L47.3388672,23.4207153 L49.5540619,21.2524414 C50.4333496,20.4029083 49.9351502,18.9376831 48.733902,18.762207 Z" id="Path" fill="#FFD400"></path>
            <path d="M31.8786621,36.7618561 C33.6952209,36.7618561 35.1600646,38.2270812 35.1600646,40.0436401 C35.1600646,41.8895722 33.6952209,43.3544159 31.8786621,43.3544159 L28.9485932,43.3544159 C30.765152,43.3544159 32.2299957,44.8196411 32.2299957,46.6655731 C32.2299957,48.4821319 30.765152,49.9469757 28.9485932,49.9469757 L19.7483062,49.9469757 C15.3533936,49.9469757 10.9580994,48.9215851 7.03201289,47.0169067 L3.04718018,36.8789673 L3.10592656,36.7618561 L7.03201289,26.4778137 L10.4309082,24.7783661 C16.0858154,21.9360352 17.3748017,17.7463531 17.6387787,15.4315948 C17.6094055,14.8456573 17.8730011,14.2597198 18.3124542,13.8786316 C18.7522889,13.4685517 19.367218,13.2926941 19.953537,13.3804321 C22.7661133,13.8198853 24.9050141,16.2521362 24.9050141,19.1818237 C24.9050141,20.7935333 24.3484497,22.3171234 23.3230591,23.577118 L31.8786621,23.577118 C33.6952209,23.577118 35.1600646,25.0419617 35.1600646,26.8585205 C35.1600646,28.7044525 33.6952209,30.1696777 31.8786621,30.1696777 C33.6952209,30.1696777 35.1600646,31.6345215 35.1600646,33.4804535 C35.1600646,35.2970123 33.6952209,36.7618561 31.8786621,36.7618561 Z" id="Path" fill="#FFBFAB"></path>
            <path d="M17.3259735,5.01060488 C17.5018311,5.537796 17.3553467,6.1237335 16.9452667,6.50482178 L14.7182465,8.6730957 L15.2458191,11.7492676 C15.4510498,12.9508973 14.1910553,13.8591767 13.1069184,13.3026123 L10.3527069,11.8373871 L10.3527069,0 C10.8802795,0 11.4074707,0.263977051 11.6714478,0.76179502 L13.048172,3.54537969 L16.1247254,4.01420596 C16.6812896,4.07295225 17.1504975,4.48303223 17.3259735,5.01060488 Z" id="Path" fill="#FDBF00"></path>
            <path d="M37.8360748,5.01060488 C38.0119324,5.537796 37.865448,6.1237335 37.4553681,6.50482178 L35.2283478,8.6730957 L35.7559204,11.7492676 C35.8440399,12.3062134 35.609436,12.8627777 35.1699829,13.1851196 C34.9063873,13.3903504 34.6134186,13.4780884 34.3200684,13.4780884 C34.0858459,13.4780884 33.8516235,13.4197235 33.6170196,13.3026123 L30.8628082,11.8373871 L30.8628082,0 C31.3903809,0 31.9175721,0.263977051 32.1811676,0.76179502 L33.5582733,3.54537969 L36.6348267,4.01420596 C37.191391,4.07295225 37.6602173,4.48303223 37.8360748,5.01060488 Z" id="Path" fill="#FDBF00"></path>
            <path d="M49.5540619,21.2524414 L47.3392486,23.4207153 L47.8664398,26.4972687 C48.0716705,27.6985168 46.811676,28.6067963 45.7279205,28.0502319 L42.9737091,26.5850067 L42.9737091,14.7476196 C43.5009003,14.7476196 44.0284729,15.0115967 44.2920685,15.5094146 L45.6691742,18.2929992 L48.733902,18.7618256 C49.9351502,18.9376831 50.4333496,20.4029083 49.5540619,21.2524414 Z" id="Path" fill="#FDBF00"></path>
            <path d="M31.8786621,43.3544159 L28.9485932,43.3544159 C30.765152,43.3544159 32.2299957,44.8196411 32.2299957,46.6655731 C32.2299957,48.4821319 30.765152,49.9469757 28.9485932,49.9469757 L19.7483062,49.9469757 C15.3533936,49.9469757 10.9580994,48.9215851 7.03201289,47.0169067 L3.04718018,36.8789673 L3.10592656,36.7618561 L31.8786621,36.7618561 C33.6952209,36.7618561 35.1600646,38.2270812 35.1600646,40.0436401 C35.1600646,41.8895722 33.6952209,43.3544159 31.8786621,43.3544159 Z" id="Path" fill="#FFA78F"></path>
            <path d="M7.03201289,26.4774322 L7.03201289,47.0169067 L1.46484375,47.0169067 C0.644683789,47.0169067 0,46.3722229 0,45.552063 L0,27.9720307 C0,27.1514893 0.644683789,26.5068055 1.46484375,26.5068055 L6.9732666,26.5068055 L7.03201289,26.4774322 Z" id="Path" fill="#725D57"></path>
            <path d="M7.03201289,36.7618561 L7.03201289,47.0169067 L1.46484375,47.0169067 C0.644683789,47.0169067 0,46.3722229 0,45.552063 L0,36.7618561 L7.03201289,36.7618561 Z" id="Path" fill="#68544F"></path>
        </g>
    </g>
</svg>