<?xml version="1.0" encoding="UTF-8"?>
<svg width="50px" height="50px" viewBox="0 0 50 50" version="1.1" xmlns="http://www.w3.org/2000/svg" xmlns:xlink="http://www.w3.org/1999/xlink">
    <!-- Generator: Sketch 55.2 (78181) - https://sketchapp.com -->
    <title>4</title>
    <desc>Created with Sketch.</desc>
    <g id="4" stroke="none" stroke-width="1" fill="none" fill-rule="evenodd">
        <g id="user" fill-rule="nonzero">
            <polygon id="Path" fill="#474F54" points="29.2307692 44.140625 26.0153846 32.421875 20.6564103 41.2109375 19 50"></polygon>
            <polygon id="Path" fill="#575F64" points="11.9846154 32.421875 8.08717949 44.140625 19 50 16.8564103 39.7460937"></polygon>
            <path d="M26.0153846,32.421875 L19,50 L11.9846154,32.421875 L14.6153846,32.421875 L14.6153846,30.7617188 C14.6153846,29.953125 15.2701538,29.296875 16.0769231,29.296875 L21.9230769,29.296875 C22.7298462,29.296875 23.3846154,29.953125 23.3846154,30.7617188 L23.3846154,32.421875 L26.0153846,32.421875 Z" id="Path" fill="#FFF5F5"></path>
            <path d="M26.0153846,32.421875 L19,50 L19,29.296875 L21.9230769,29.296875 C22.7298462,29.296875 23.3846154,29.953125 23.3846154,30.7617188 L23.3846154,32.421875 L26.0153846,32.421875 Z" id="Path" fill="#EFE2DD"></path>
            <path d="M19,0 L7.30769231,0 C6.22128205,0 5.51584615,1.14746094 6.00010256,2.12011719 L7.866,5.859375 L7.30769231,5.859375 C6.50092308,5.859375 5.84615385,6.515625 5.84615385,7.32421875 L5.84615385,16.1132812 C5.84615385,16.921875 6.50092308,17.578125 7.30769231,17.578125 C10.8368205,17.578125 13.7891282,15.0576172 14.4682564,11.71875 L23.5317436,11.71875 C24.2108718,15.0576172 27.1631795,17.578125 30.6923077,17.578125 C31.4990769,17.578125 32.1538462,16.921875 32.1538462,16.1132812 L32.1538462,13.1835938 C32.1538462,5.9140625 26.2531282,0 19,0 Z" id="Path" fill="#FED843"></path>
            <path d="M32.1538462,13.1835938 L32.1538462,16.1132812 C32.1538462,16.921875 31.4990769,17.578125 30.6923077,17.578125 C27.1631795,17.578125 24.2108718,15.0576172 23.5317436,11.71875 L19,11.71875 L19,0 C26.2531282,0 32.1538462,5.9140625 32.1538462,13.1835938 Z" id="Path" fill="#FFB64C"></path>
            <path d="M10.2307692,23.1445312 L7.30769231,23.1445312 C4.89001538,23.1445312 2.92307692,21.1731445 2.92307692,18.75 C2.92307692,16.3268555 4.89001538,14.3554688 7.30769231,14.3554688 L10.2307692,14.3554688 C11.0379282,14.3554688 11.6923077,15.0113281 11.6923077,15.8203125 L11.6923077,21.6796875 C11.6923077,22.4886719 11.0379282,23.1445312 10.2307692,23.1445312 Z" id="Path" fill="#FFBFAB"></path>
            <path d="M30.6923077,23.1445312 L27.7692308,23.1445312 C26.9620718,23.1445312 26.3076923,22.4886719 26.3076923,21.6796875 L26.3076923,15.8203125 C26.3076923,15.0113281 26.9620718,14.3554688 27.7692308,14.3554688 L30.6923077,14.3554688 C33.1099846,14.3554688 35.0769231,16.3268555 35.0769231,18.75 C35.0769231,21.1731445 33.1099846,23.1445312 30.6923077,23.1445312 Z" id="Path" fill="#F89580"></path>
            <path d="M29.2307692,14.3994141 L29.2307692,21.9726562 C29.2307692,27.6269531 24.6415385,32.2265625 19,32.2265625 C13.3584615,32.2265625 8.76923077,27.6269531 8.76923077,21.9726562 L8.76923077,14.4003906 C10.5074872,13.7861328 11.6923077,12.1318359 11.6923077,10.2539062 C11.6923077,9.4453125 12.3470769,8.7890625 13.1538462,8.7890625 L24.8461538,8.7890625 C25.6529231,8.7890625 26.3076923,9.4453125 26.3076923,10.2539062 C26.3076923,12.1308594 27.4925128,13.7851562 29.2307692,14.3994141 Z" id="Path" fill="#FFE1BA"></path>
            <path d="M29.2307692,14.3994141 L29.2307692,21.9726562 C29.2307692,27.6269531 24.6415385,32.2265625 19,32.2265625 L19,8.7890625 L24.8461538,8.7890625 C25.6529231,8.7890625 26.3076923,9.4453125 26.3076923,10.2539062 C26.3076923,12.1308594 27.4925128,13.7851562 29.2307692,14.3994141 Z" id="Path" fill="#FFBFAB"></path>
            <path d="M23.3846154,21.9726562 C23.3846154,24.3955078 21.4173846,26.3671875 19,26.3671875 C16.5826154,26.3671875 14.6153846,24.3955078 14.6153846,21.9726562 C14.6153846,21.1640625 15.2701538,20.5078125 16.0769231,20.5078125 C16.8836923,20.5078125 17.5384615,21.1640625 17.5384615,21.9726562 C17.5384615,22.7802734 18.1942051,23.4375 19,23.4375 C19.8057949,23.4375 20.4615385,22.7802734 20.4615385,21.9726562 C20.4615385,21.1640625 21.1163077,20.5078125 21.9230769,20.5078125 C22.7298462,20.5078125 23.3846154,21.1640625 23.3846154,21.9726562 Z" id="Path" fill="#FFBFAB"></path>
            <path d="M23.3846154,21.9726562 C23.3846154,24.3955078 21.4173846,26.3671875 19,26.3671875 L19,23.4375 C19.8057949,23.4375 20.4615385,22.7802734 20.4615385,21.9726562 C20.4615385,21.1640625 21.1163077,20.5078125 21.9230769,20.5078125 C22.7298462,20.5078125 23.3846154,21.1640625 23.3846154,21.9726562 Z" id="Path" fill="#F89580"></path>
            <path d="M38,39.7460937 C38,35.7075195 34.7217692,32.421875 30.6923077,32.421875 L26.0153846,32.421875 L27.6315538,43.2206055 C27.715641,43.7821289 27.4682513,44.3417969 26.9968564,44.6567383 L19,50 L36.5384615,50 C37.3456205,50 38,49.3441406 38,48.5351562 L38,39.7460937 Z" id="Path" fill="#32393F"></path>
            <path d="M11.9846154,32.421875 L7.30769231,32.421875 C3.27823077,32.421875 0,35.7075195 0,39.7460937 L0,48.5351562 C0,49.3441406 0.654379487,50 1.46153846,50 L19,50 L11.0031436,44.6566406 C10.5317487,44.3416992 10.2844564,43.7820312 10.3684462,43.2205078 L11.9846154,32.421875 Z" id="Path" fill="#474F54"></path>
        </g>
    </g>
</svg>