<?xml version="1.0" encoding="UTF-8"?>
<svg width="162px" height="52px" viewBox="0 0 162 52" version="1.1" xmlns="http://www.w3.org/2000/svg" xmlns:xlink="http://www.w3.org/1999/xlink">
    <!-- Generator: Sketch 55.2 (78181) - https://sketchapp.com -->
    <title>logo2</title>
    <desc>Created with Sketch.</desc>
    <defs>
        <linearGradient x1="100%" y1="50%" x2="0%" y2="50%" id="linearGradient-1">
            <stop stop-color="#FF995E" offset="0%"></stop>
            <stop stop-color="#FF5F02" offset="100%"></stop>
        </linearGradient>
        <linearGradient x1="100%" y1="50%" x2="0%" y2="50%" id="linearGradient-2">
            <stop stop-color="#FF995E" offset="0%"></stop>
            <stop stop-color="#FF5F02" offset="100%"></stop>
        </linearGradient>
    </defs>
    <g id="logo2" stroke="none" stroke-width="1" fill="none" fill-rule="evenodd">
        <g id="Group-2-Copy" transform="translate(0.000000, 3.630000)">
            <path d="M147.800819,15.6379243 L146.044548,29.846668 L144.179131,29.846668 L144.972925,23.3620076 L138.037143,23.3620076 L137.243349,29.846668 L135.377931,29.846668 L137.124279,15.6379243 L138.989697,15.6379243 L138.205825,22.0135155 L145.141607,22.0135155 L145.925479,15.6379243 L147.800819,15.6379243 Z M161.85962,21.7458001 C161.85962,22.9554829 161.672749,24.0577319 161.299002,25.0525803 C160.925255,26.0474287 160.40764,26.9001431 159.746141,27.6107491 C159.084642,28.3213551 158.299124,28.8716534 157.389563,29.2616604 C156.480002,29.6516674 155.489422,29.846668 154.417794,29.846668 L149.516111,29.846668 L151.262459,15.6379243 L156.174065,15.6379243 C157.047243,15.6379243 157.834415,15.7866535 158.535604,16.0841165 C159.236793,16.3815795 159.833787,16.799674 160.326604,17.3384125 C160.81942,17.877151 161.198123,18.5216444 161.462722,19.2719121 C161.727322,20.0221798 161.85962,20.8468009 161.85962,21.7458001 Z M159.94459,21.7854617 C159.94459,21.0715505 159.855289,20.4270571 159.676684,19.851962 C159.498079,19.2768669 159.238445,18.7893655 158.897773,18.389443 C158.557101,17.9895206 158.142017,17.6821468 157.652507,17.4673124 C157.162998,17.2524781 156.610655,17.1450625 155.995461,17.1450625 L152.949273,17.1450625 L151.560132,28.3494451 L154.60632,28.3494451 C155.393504,28.3494451 156.114527,28.1990633 156.769411,27.8982952 C157.424295,27.5975271 157.98656,27.1645597 158.456225,26.5993801 C158.925889,26.0342004 159.291362,25.3467407 159.552654,24.5369804 C159.813946,23.7272201 159.94459,22.8100564 159.94459,21.7854617 Z" id="HD" fill="#333436" fill-rule="nonzero"></path>
            <path d="M61.0401531,26.1085686 C61.1195329,26.1085686 61.1989116,26.1234415 61.2782915,26.1531878 C61.3576714,26.1829341 61.4337426,26.2341631 61.5065075,26.3068763 L62.8361138,27.7049453 C62.2539947,28.4651284 61.524703,29.0385623 60.6482169,29.4252642 C59.7717307,29.8119661 58.7348466,30.0053141 57.5375335,30.0053141 C56.4394452,30.0053141 55.4554802,29.8185762 54.585609,29.445095 C53.7157379,29.0716137 52.9781776,28.5560189 52.372906,27.8982952 C51.7676345,27.2405715 51.3029384,26.4605692 50.9788039,25.5582649 C50.6546694,24.6559605 50.4926046,23.676 50.4926046,22.6183538 C50.4926046,21.5408768 50.6778215,20.551001 51.0482609,19.6486967 C51.4187004,18.7463923 51.9363156,17.9680425 52.601122,17.313624 C53.2659285,16.6592055 54.0613691,16.1502209 54.9874677,15.786655 C55.9135662,15.4230892 56.9355668,15.241309 58.0535001,15.241309 C58.5959293,15.241309 59.1069296,15.2892328 59.5865163,15.385082 C60.0661031,15.4809312 60.5142619,15.613135 60.9310063,15.7816973 C61.3477506,15.9502597 61.7314143,16.1518705 62.0820087,16.3865357 C62.4326032,16.6212009 62.7435031,16.8806509 63.0147176,17.1648933 L61.88356,18.6819468 C61.8107952,18.7744909 61.7248016,18.8587708 61.6255767,18.9347891 C61.5263519,19.0108074 61.3874392,19.048816 61.2088345,19.048816 C61.0897646,19.048816 60.9773115,19.0223752 60.8714717,18.9694929 C60.7656318,18.9166106 60.6531787,18.8521613 60.5341089,18.776143 C60.4150391,18.7001247 60.284395,18.6174973 60.1421727,18.5282584 C59.9999504,18.4390195 59.8312707,18.3563921 59.6361285,18.2803738 C59.4409863,18.2043555 59.2127726,18.1399062 58.9514805,18.0870239 C58.6901884,18.0341416 58.3842497,18.0077008 58.0336552,18.0077008 C57.4250762,18.0077008 56.8694254,18.1151164 56.3666861,18.3299507 C55.8639469,18.5447851 55.4323253,18.8521589 55.0718084,19.2520814 C54.7112914,19.6520038 54.4301586,20.1362001 54.2284014,20.7046849 C54.0266442,21.2731697 53.9257671,21.911053 53.9257671,22.6183538 C53.9257671,23.3587061 54.0266442,24.01642 54.2284014,24.591515 C54.4301586,25.1666101 54.7046765,25.6508065 55.0519635,26.0441186 C55.3992505,26.4374308 55.8044125,26.7365418 56.2674618,26.9414608 C56.7305111,27.1463797 57.2266279,27.2488376 57.755827,27.2488376 C58.0601166,27.2488376 58.337942,27.2339647 58.5893116,27.2042184 C58.8406812,27.1744721 59.0738561,27.1232432 59.2888433,27.05053 C59.5038304,26.9778168 59.708892,26.8836216 59.9040342,26.7679416 C60.0991764,26.6522615 60.2959694,26.5084899 60.4944191,26.3366224 C60.573799,26.2705195 60.6597926,26.2159855 60.7524024,26.1730186 C60.8450123,26.1300517 60.9409282,26.1085686 61.0401531,26.1085686 Z M78.6661252,22.6183538 C78.6661252,23.6627794 78.4858694,24.6344772 78.1253524,25.5334764 C77.7648355,26.4324756 77.2571427,27.2141305 76.6022587,27.8784645 C75.9473747,28.5427984 75.158549,29.0633508 74.2357579,29.4401373 C73.3129668,29.8169237 72.2893125,30.0053141 71.1647642,30.0053141 C70.040216,30.0053141 69.0149079,29.8169237 68.0888094,29.4401373 C67.1627108,29.0633508 66.3705777,28.5427984 65.7123862,27.8784645 C65.0541947,27.2141305 64.5448481,26.4324756 64.1843312,25.5334764 C63.8238142,24.6344772 63.6435585,23.6627794 63.6435585,22.6183538 C63.6435585,21.5739283 63.8238142,20.6022305 64.1843312,19.7032313 C64.5448481,18.8042321 65.0541947,18.0242297 65.7123862,17.3632009 C66.3705777,16.7021721 67.1627108,16.1832722 68.0888094,15.8064858 C69.0149079,15.4296994 70.040216,15.241309 71.1647642,15.241309 C72.2893125,15.241309 73.3129668,15.4313519 74.2357579,15.8114435 C75.158549,16.1915351 75.9473747,16.7120875 76.6022587,17.3731163 C77.2571427,18.0341451 77.7648355,18.8141474 78.1253524,19.7131467 C78.4858694,20.6121459 78.6661252,21.5805386 78.6661252,22.6183538 Z M75.2329626,22.6183538 C75.2329626,21.9044427 75.1403542,21.2616018 74.9551344,20.6898119 C74.7699147,20.1180219 74.5036654,19.6338256 74.1563784,19.2372083 C73.8090915,18.840591 73.3840847,18.5365223 72.8813455,18.3249931 C72.3786063,18.1134638 71.8064183,18.0077008 71.1647642,18.0077008 C70.5164952,18.0077008 69.939346,18.1134638 69.4332993,18.3249931 C68.9272526,18.5365223 68.5005922,18.840591 68.1533052,19.2372083 C67.8060182,19.6338256 67.5397689,20.1180219 67.3545492,20.6898119 C67.1693295,21.2616018 67.076721,21.9044427 67.076721,22.6183538 C67.076721,23.3388753 67.1693295,23.9850213 67.3545492,24.5568112 C67.5397689,25.1286011 67.8060182,25.6127975 68.1533052,26.0094148 C68.5005922,26.4060321 68.9272526,26.7084482 69.4332993,26.9166723 C69.939346,27.1248964 70.5164952,27.2290069 71.1647642,27.2290069 C71.8064183,27.2290069 72.3786063,27.1248964 72.8813455,26.9166723 C73.3840847,26.7084482 73.8090915,26.4060321 74.1563784,26.0094148 C74.5036654,25.6127975 74.7699147,25.1286011 74.9551344,24.5568112 C75.1403542,23.9850213 75.2329626,23.3388753 75.2329626,22.6183538 Z M88.0350433,23.243023 C88.1673431,23.4942139 88.2946797,23.7553164 88.417057,24.0263382 C88.5394343,24.29736 88.6568487,24.574988 88.7693035,24.8592304 C88.8817583,24.5683777 89.0008263,24.2857921 89.1265111,24.0114651 C89.2521959,23.7371382 89.3811863,23.4710781 89.5134861,23.2132768 L93.2244768,15.915555 C93.2906267,15.7899595 93.3584294,15.6924592 93.4278867,15.6230512 C93.4973441,15.5536432 93.5750691,15.5024142 93.661064,15.4693628 C93.7470588,15.4363113 93.8446285,15.4164808 93.9537758,15.4098705 C94.0629231,15.4032602 94.1902598,15.3999551 94.3357896,15.3999551 L96.8957778,15.3999551 L96.8957778,29.846668 L93.9388922,29.846668 L93.9388922,21.5375771 C93.9388922,21.1343495 93.9587368,20.698077 93.9984268,20.2287466 L90.1683668,27.6553683 C90.049297,27.8867284 89.8888859,28.0618984 89.6871287,28.1808836 C89.4853715,28.2998688 89.2555041,28.3593605 88.9975195,28.3593605 L88.5410875,28.3593605 C88.2831029,28.3593605 88.0532354,28.2998688 87.8514782,28.1808836 C87.649721,28.0618984 87.48931,27.8867284 87.3702401,27.6553683 L83.5203353,20.2188312 C83.5467953,20.4501913 83.56664,20.6798953 83.5798699,20.9079503 C83.5930999,21.1360052 83.5997148,21.3458787 83.5997148,21.5375771 L83.5997148,29.846668 L80.6428292,29.846668 L80.6428292,15.3999551 L83.2028174,15.3999551 C83.3483472,15.3999551 83.4756838,15.4032602 83.5848312,15.4098705 C83.6939785,15.4164808 83.7915481,15.4363113 83.877543,15.4693628 C83.9635379,15.5024142 84.0412628,15.5536432 84.1107202,15.6230512 C84.1801776,15.6924592 84.2479802,15.7899595 84.3141301,15.915555 L88.0350433,23.243023 Z M108.932243,15.3999551 L108.932243,17.9779547 L102.998627,17.9779547 L102.998627,21.3491848 L107.543102,21.3491848 L107.543102,23.8280306 L102.998627,23.8280306 L102.998627,27.2686684 L108.932243,27.2686684 L108.932243,29.846668 L99.6249993,29.846668 L99.6249993,15.3999551 L108.932243,15.3999551 Z M124.374089,22.6183538 C124.374089,23.6627794 124.193833,24.6262145 123.833316,25.5086879 C123.472799,26.3911614 122.965106,27.1546383 122.310222,27.7991414 C121.655338,28.4436445 120.866512,28.9460189 119.943721,29.3062796 C119.02093,29.6665403 117.997276,29.846668 116.872728,29.846668 L111.256629,29.846668 L111.256629,15.3999551 L116.872728,15.3999551 C117.997276,15.3999551 119.02093,15.5817353 119.943721,15.9453012 C120.866512,16.308867 121.655338,16.8112414 122.310222,17.4524394 C122.965106,18.0936373 123.472799,18.8554616 123.833316,19.7379351 C124.193833,20.6204086 124.374089,21.5805386 124.374089,22.6183538 Z M120.940926,22.6183538 C120.940926,21.9044427 120.848318,21.2599493 120.663098,20.6848542 C120.477878,20.1097591 120.211629,19.6222576 119.864342,19.2223352 C119.517055,18.8224128 119.092048,18.515039 118.589309,18.3002046 C118.08657,18.0853702 117.514382,17.9779547 116.872728,17.9779547 L114.630257,17.9779547 L114.630257,27.2686684 L116.872728,27.2686684 C117.514382,27.2686684 118.08657,27.1612528 118.589309,26.9464185 C119.092048,26.7315841 119.517055,26.4242103 119.864342,26.0242879 C120.211629,25.6243654 120.477878,25.136864 120.663098,24.5617689 C120.848318,23.9866738 120.940926,23.3388753 120.940926,22.6183538 Z M131.856951,24.3535458 L131.856951,29.846668 L128.503168,29.846668 L128.503168,24.3535458 L123.264123,15.3999551 L126.221008,15.3999551 C126.512068,15.3999551 126.743589,15.4677095 126.915579,15.6032205 C127.087568,15.7387314 127.226481,15.9122488 127.332321,16.1237781 L129.376343,20.3279004 C129.541717,20.6650251 129.69386,20.975704 129.832775,21.2599464 C129.971689,21.5441888 130.094065,21.8251218 130.199905,22.1027539 C130.29913,21.8185115 130.418198,21.5342734 130.557112,21.250031 C130.696027,20.9657886 130.844862,20.6584148 131.003622,20.3279004 L133.027799,16.1237781 C133.067489,16.0378443 133.122062,15.9519118 133.191519,15.8659781 C133.260976,15.7800443 133.340355,15.7023746 133.429657,15.6329666 C133.51896,15.5635586 133.621491,15.507372 133.737253,15.4644051 C133.853015,15.4214382 133.980352,15.3999551 134.119267,15.3999551 L137.095997,15.3999551 L131.856951,24.3535458 Z" id="COMEDY" fill="#333436" fill-rule="nonzero"></path>
            <g id="Group">
                <polygon id="Stroke-18" stroke="#FF6206" stroke-width="1.08822561" points="13.555758 29.1612605 13.555758 0 40.6672739 14.5811633"></polygon>
                <polyline id="Fill-16" fill="url(#linearGradient-1)" points="13.555758 43.7413578 13.555758 14.5811633 40.6672739 29.1612605 13.555758 43.7413578"></polyline>
                <polyline id="Fill-17" fill="url(#linearGradient-2)" points="0 36.4619687 0 7.30070817 27.1115159 21.8818714 0 36.4619687"></polyline>
            </g>
        </g>
    </g>
</svg>