<?xml version="1.0" encoding="UTF-8"?>
<svg width="171px" height="52px" viewBox="0 0 171 52" version="1.1" xmlns="http://www.w3.org/2000/svg" xmlns:xlink="http://www.w3.org/1999/xlink">
    <!-- Generator: Sketch 55.2 (78181) - https://sketchapp.com -->
    <title>logo1</title>
    <desc>Created with Sketch.</desc>
    <defs>
        <linearGradient x1="100%" y1="50%" x2="0%" y2="50%" id="linearGradient-1">
            <stop stop-color="#FF995E" offset="0%"></stop>
            <stop stop-color="#FF5F02" offset="100%"></stop>
        </linearGradient>
    </defs>
    <g id="logo1" stroke="none" stroke-width="1" fill="none" fill-rule="evenodd">
        <g id="Group-4-Copy" transform="translate(0.000000, 10.890000)">
            <path d="M82.7497557,9.05941988e-14 C84.8710133,9.05941988e-14 86.6269169,0.551515496 88.0175191,1.65456303 C89.4081213,2.75761057 90.3076782,4.24903276 90.7162167,6.12887434 L86.4501533,6.12887434 C86.1358929,5.36761618 85.6527248,4.76949374 85.0006345,4.33448908 C84.3485442,3.89948441 83.5746896,3.68198534 82.6790475,3.68198534 C81.500571,3.68198534 80.5499476,4.10921566 79.8271487,4.9636891 C79.1043498,5.81816255 78.7429558,6.96003266 78.7429558,8.3893337 C78.7429558,9.81863473 79.1043498,10.9566209 79.8271487,11.8033264 C80.5499476,12.6500319 81.500571,13.0733783 82.6790475,13.0733783 C83.5746896,13.0733783 84.3485442,12.8558793 85.0006345,12.4208746 C85.6527248,11.9858699 86.1358929,11.3955153 86.4501533,10.6497931 L90.7162167,10.6497931 C90.3076782,12.5140988 89.4081213,14.001637 88.0175191,15.1124525 C86.6269169,16.223268 84.8710133,16.7786674 82.7497557,16.7786674 C81.1313147,16.7786674 79.7093078,16.4252314 78.4836923,15.7183488 C77.2580768,15.0114663 76.3113815,14.0210687 75.6435782,12.7471265 C74.9757749,11.4731843 74.6418782,10.0206012 74.6418782,8.3893337 C74.6418782,6.75806621 74.9757749,5.30548314 75.6435782,4.03154092 C76.3113815,2.75759869 77.2580768,1.76720114 78.4836923,1.06031856 C79.7093078,0.353435987 81.1313147,9.05941988e-14 82.7497557,9.05941988e-14 Z M98.3053531,0.163125933 L98.3053531,16.6388452 L94.2749838,16.6388452 L94.2749838,0.163125933 L98.3053531,0.163125933 Z M110.938344,16.6388452 L107.332224,10.416756 L106.413017,10.416756 L106.413017,16.6388452 L102.382647,16.6388452 L102.382647,0.163125933 L109.264915,0.163125933 C110.584809,0.163125933 111.700417,0.388392826 112.611772,0.83893337 C113.523127,1.28947391 114.206633,1.90701591 114.662311,2.69157789 C115.117988,3.47613988 115.345823,4.37332354 115.345823,5.38315579 C115.345823,6.57941861 115.011927,7.59700354 114.344123,8.43594111 C113.67632,9.27487867 112.706056,9.84969764 111.433301,10.1604153 L115.392962,16.6388452 L110.938344,16.6388452 Z M106.413017,7.69022256 L108.911374,7.69022256 C109.712738,7.69022256 110.301968,7.51544652 110.67908,7.1658892 C111.056193,6.81633188 111.244746,6.29977159 111.244746,5.61619284 C111.244746,4.96368584 111.052264,4.45100946 110.667295,4.07814832 C110.282326,3.70528719 109.697025,3.51885941 108.911374,3.51885941 L106.413017,3.51885941 L106.413017,7.69022256 Z M126.281816,9.05941988e-14 C128.403074,9.05941988e-14 130.158977,0.551515496 131.54958,1.65456303 C132.940182,2.75761057 133.839739,4.24903276 134.248277,6.12887434 L129.982214,6.12887434 C129.667953,5.36761618 129.184785,4.76949374 128.532695,4.33448908 C127.880605,3.89948441 127.10675,3.68198534 126.211108,3.68198534 C125.032632,3.68198534 124.082008,4.10921566 123.359209,4.9636891 C122.63641,5.81816255 122.275016,6.96003266 122.275016,8.3893337 C122.275016,9.81863473 122.63641,10.9566209 123.359209,11.8033264 C124.082008,12.6500319 125.032632,13.0733783 126.211108,13.0733783 C127.10675,13.0733783 127.880605,12.8558793 128.532695,12.4208746 C129.184785,11.9858699 129.667953,11.3955153 129.982214,10.6497931 L134.248277,10.6497931 C133.839739,12.5140988 132.940182,14.001637 131.54958,15.1124525 C130.158977,16.223268 128.403074,16.7786674 126.281816,16.7786674 C124.663375,16.7786674 123.241368,16.4252314 122.015753,15.7183488 C120.790137,15.0114663 119.843442,14.0210687 119.175639,12.7471265 C118.507835,11.4731843 118.173939,10.0206012 118.173939,8.3893337 C118.173939,6.75806621 118.507835,5.30548314 119.175639,4.03154092 C119.843442,2.75759869 120.790137,1.76720114 122.015753,1.06031856 C123.241368,0.353435987 124.663375,9.05941988e-14 126.281816,9.05941988e-14 Z M141.837414,13.5860598 L147.211239,13.5860598 L147.211239,16.6388452 L137.807044,16.6388452 L137.807044,0.163125933 L141.837414,0.163125933 L141.837414,13.5860598 Z M154.399696,3.33242977 L154.399696,6.78137807 L160.032785,6.78137807 L160.032785,9.78755598 L154.399696,9.78755598 L154.399696,13.4462376 L160.739868,13.4462376 L160.739868,16.6388452 L150.369327,16.6388452 L150.369327,0.163125933 L160.739868,0.163125933 L160.739868,3.33242977 L154.399696,3.33242977 Z" id="CIRCLE" fill="#333436" fill-rule="nonzero"></path>
            <path d="M78.3467751,23.595001 C79.0383594,23.595001 79.6646571,23.7506798 80.2256871,24.0620421 C80.7867172,24.3734043 81.2277719,24.8082897 81.5488646,25.3667111 C81.8699573,25.9251325 82.0305012,26.5563085 82.0305012,27.260258 C82.0305012,27.9642074 81.8699573,28.5953834 81.5488646,29.1538049 C81.2277719,29.7122263 80.7867172,30.1488038 80.2256871,30.4635504 C79.6646571,30.7782971 79.0383594,30.935668 78.3467751,30.935668 C77.6481339,30.935668 77.0183078,30.7782971 76.4572777,30.4635504 C75.8962477,30.1488038 75.4534287,29.7122263 75.1288075,29.1538049 C74.8041864,28.5953834 74.6418782,27.9642074 74.6418782,27.260258 C74.6418782,26.5563085 74.8041864,25.9251325 75.1288075,25.3667111 C75.4534287,24.8082897 75.8962477,24.3734043 76.4572777,24.0620421 C77.0183078,23.7506798 77.6481339,23.595001 78.3467751,23.595001 Z M78.3467751,24.6712261 C77.8669004,24.6712261 77.4399594,24.77614 77.0659394,24.9859711 C76.6919193,25.1958022 76.4008232,25.4970068 76.1926422,25.889594 C75.9844613,26.2821812 75.8803723,26.7390646 75.8803723,27.260258 C75.8803723,27.7814513 75.9844613,28.2383347 76.1926422,28.6309219 C76.4008232,29.0235091 76.6919193,29.3247138 77.0659394,29.5345448 C77.4399594,29.7443759 77.8669004,29.8492899 78.3467751,29.8492899 C78.8195929,29.8492899 79.2412413,29.7443759 79.6117328,29.5345448 C79.9822243,29.3247138 80.2715563,29.0235091 80.4797372,28.6309219 C80.6879182,28.2383347 80.7920071,27.7814513 80.7920071,27.260258 C80.7920071,26.7390646 80.6879182,26.2821812 80.4797372,25.889594 C80.2715563,25.4970068 79.9822243,25.1958022 79.6117328,24.9859711 C79.2412413,24.77614 78.8195929,24.6712261 78.3467751,24.6712261 Z M88.4252162,30.8544435 L86.5621824,27.9912788 L85.7047634,27.9912788 L85.7047634,30.8544435 L84.4980255,30.8544435 L84.4980255,23.6863786 L87.133795,23.6863786 C87.9876898,23.6863786 88.6351582,23.8860536 89.0762196,24.2854095 C89.5172809,24.6847655 89.7378083,25.2127196 89.7378083,25.8692879 C89.7378083,26.4310937 89.5737359,26.8913614 89.2455863,27.2501049 C88.9174366,27.6088484 88.4428617,27.8389823 87.8218473,27.9405134 L89.78015,30.8544435 L88.4252162,30.8544435 Z M85.7047634,27.1688804 L87.0385263,27.1688804 C88.0123897,27.1688804 88.4993142,26.7559931 88.4993142,25.9302063 C88.4993142,25.5376191 88.3811115,25.231338 88.1447026,25.0113538 C87.9082937,24.7913696 87.539572,24.6813791 87.0385263,24.6813791 L85.7047634,24.6813791 L85.7047634,27.1688804 Z M93.2850454,23.6863786 L93.2850454,30.8544435 L92.0783076,30.8544435 L92.0783076,23.6863786 L93.2850454,23.6863786 Z M99.415125,23.6254602 C100.304305,23.6254602 101.045277,23.8352882 101.638063,24.2549503 C102.23085,24.6746125 102.622506,25.2465629 102.813045,25.9708186 L101.542794,25.9708186 C101.380484,25.5850001 101.114087,25.2770268 100.743595,25.0468895 C100.373104,24.8167522 99.9338131,24.7016853 99.4257104,24.7016853 C98.9599496,24.7016853 98.5418297,24.8065992 98.1713382,25.0164303 C97.8008466,25.2262614 97.5115147,25.5240817 97.3033338,25.9099002 C97.0951528,26.2957186 96.9910639,26.7492177 96.9910639,27.270411 C96.9910639,27.8186794 97.096917,28.2891001 97.3086265,28.6816873 C97.5203359,29.0742745 97.8184889,29.3737869 98.2030944,29.5802336 C98.5876999,29.7866804 99.0340473,29.8899022 99.54215,29.8899022 C100.163164,29.8899022 100.695959,29.7054566 101.140548,29.3365601 C101.585138,28.9676635 101.8533,28.4617074 101.94504,27.8186766 L99.2034166,27.8186766 L99.2034166,26.9658191 L102.961241,26.9658191 L102.961241,28.0725033 C102.876557,28.6004654 102.680729,29.0793469 102.37375,29.5091622 C102.066771,29.9389775 101.661001,30.2824861 101.156427,30.5396984 C100.651852,30.7969107 100.074953,30.9255149 99.4257104,30.9255149 C98.6988413,30.9255149 98.0566656,30.7698361 97.499164,30.4584739 C96.9416625,30.1471116 96.511193,29.7156106 96.2077428,29.1639579 C95.9042926,28.6123052 95.7525698,27.9811292 95.7525698,27.270411 C95.7525698,26.5596928 95.9042926,25.9285169 96.2077428,25.3768642 C96.511193,24.8252115 96.9398982,24.3954026 97.4938713,24.0874247 C98.0478444,23.7794469 98.6882559,23.6254602 99.415125,23.6254602 Z M106.635503,23.6863786 L106.635503,30.8544435 L105.428765,30.8544435 L105.428765,23.6863786 L106.635503,23.6863786 Z M115.390766,30.8544435 L114.184029,30.8544435 L110.55323,25.5646959 L110.55323,30.8544435 L109.346492,30.8544435 L109.346492,23.6965317 L110.55323,23.6965317 L114.184029,29.0065854 L114.184029,23.6965317 L115.390766,23.6965317 L115.390766,30.8544435 Z M122.558217,29.3010243 L119.403762,29.3010243 L118.832149,30.8544435 L117.540728,30.8544435 L120.292937,23.7980624 L121.679627,23.7980624 L124.421251,30.8544435 L123.12983,30.8544435 L122.558217,29.3010243 Z M122.219484,28.4075545 L120.98099,25.0570426 L119.742495,28.4075545 L122.219484,28.4075545 Z M127.777951,29.9508206 L130.360793,29.9508206 L130.360793,30.8544435 L126.571213,30.8544435 L126.571213,23.6863786 L127.777951,23.6863786 L127.777951,29.9508206 Z M141.086066,23.6863786 L141.086066,24.6204607 L139.000739,24.6204607 L139.000739,30.8544435 L137.783415,30.8544435 L137.783415,24.6204607 L135.708673,24.6204607 L135.708673,23.6863786 L141.086066,23.6863786 Z M147.69249,29.3010243 L144.538035,29.3010243 L143.966422,30.8544435 L142.675001,30.8544435 L145.42721,23.7980624 L146.8139,23.7980624 L149.555524,30.8544435 L148.264102,30.8544435 L147.69249,29.3010243 Z M147.353756,28.4075545 L146.115262,25.0570426 L144.876768,28.4075545 L147.353756,28.4075545 Z M156.61712,28.945667 C156.61712,29.2976417 156.528909,29.6242288 156.352485,29.9254379 C156.17606,30.226647 155.907899,30.468626 155.547993,30.6513821 C155.188087,30.8341383 154.747032,30.9255149 154.224815,30.9255149 C153.716712,30.9255149 153.261544,30.8392147 152.859296,30.6666117 C152.457048,30.4940088 152.13596,30.2520298 151.896023,29.9406675 C151.656085,29.6293052 151.518476,29.2705672 151.483191,28.8644425 L152.774613,28.8644425 C152.809898,29.1758047 152.949271,29.4431661 153.192737,29.6665347 C153.436203,29.8899033 153.762583,30.0015859 154.171888,30.0015859 C154.538851,30.0015859 154.82289,29.9068249 155.024014,29.7173 C155.225138,29.5277752 155.325699,29.284104 155.325699,28.9862793 C155.325699,28.729067 155.251602,28.5175469 155.103405,28.3517126 C154.955208,28.1858784 154.77173,28.055582 154.552963,27.9608196 C154.334197,27.8660571 154.03428,27.7577588 153.653202,27.6359214 C153.187442,27.4937778 152.808135,27.3516363 152.51527,27.2094927 C152.222405,27.067349 151.97365,26.8609054 151.768998,26.5901556 C151.564345,26.3194058 151.462021,25.964052 151.462021,25.5240836 C151.462021,25.1382652 151.560817,24.799833 151.758412,24.508777 C151.956008,24.217721 152.238283,23.9926636 152.605246,23.8335981 C152.972209,23.6745326 153.395622,23.595001 153.875496,23.595001 C154.63765,23.595001 155.242777,23.7709857 155.690896,24.1229605 C156.139014,24.4749352 156.394826,24.9352029 156.458339,25.5037775 L155.156332,25.5037775 C155.106933,25.2330277 154.974617,25.0012017 154.759379,24.8082925 C154.544141,24.6153832 154.249516,24.5189301 153.875496,24.5189301 C153.536761,24.5189301 153.265071,24.6018459 153.060419,24.7676802 C152.855767,24.9335144 152.753442,25.1721091 152.753442,25.4834714 C152.753442,25.7271462 152.824011,25.9285133 152.96515,26.0875788 C153.10629,26.2466443 153.284476,26.3718642 153.499714,26.4632423 C153.714952,26.5546203 154.009576,26.6612265 154.383596,26.7830639 C154.856414,26.9252075 155.242778,27.0690412 155.5427,27.2145692 C155.842622,27.3600972 156.096669,27.5716173 156.30485,27.8491358 C156.513031,28.1266544 156.61712,28.4921611 156.61712,28.945667 Z M163.879839,23.6863786 L163.879839,24.6204607 L161.794512,24.6204607 L161.794512,30.8544435 L160.577189,30.8544435 L160.577189,24.6204607 L158.502446,24.6204607 L158.502446,23.6863786 L163.879839,23.6863786 Z M167.236539,24.6204607 L167.236539,26.7932169 L169.988748,26.7932169 L169.988748,27.6866868 L167.236539,27.6866868 L167.236539,29.9102083 L170.306311,29.9102083 L170.306311,30.8544435 L166.029801,30.8544435 L166.029801,23.6863786 L170.306311,23.6863786 L170.306311,24.6204607 L167.236539,24.6204607 Z" id="ORIGINALTASTE" fill="#333436" fill-rule="nonzero"></path>
            <path d="M28.527412,31.4600014 L-5.32907052e-13,31.4600014 L14.263706,10.901365 L28.527412,31.4600014 Z M31.9624774,31.4600014 L24.9043796,21.2880223 L38.6857201,1.42511386 L59.5245358,31.4600014 L31.9624774,31.4600014 Z M24.3379891,9.23624017 C22.0238791,9.23624017 20.1479438,7.40326488 20.1479438,5.14214937 C20.1479438,2.88164201 22.0238791,1.04866671 24.3379891,1.04866671 C26.6520991,1.04866671 28.527412,2.88164201 28.527412,5.14214937 C28.527412,7.40326488 26.6520991,9.23624017 24.3379891,9.23624017 Z" id="Combined-Shape" fill="url(#linearGradient-1)"></path>
        </g>
    </g>
</svg>