<?xml version="1.0" encoding="UTF-8"?>
<svg width="138px" height="52px" viewBox="0 0 138 52" version="1.1" xmlns="http://www.w3.org/2000/svg" xmlns:xlink="http://www.w3.org/1999/xlink">
    <!-- Generator: Sketch 55.2 (78181) - https://sketchapp.com -->
    <title>logo4</title>
    <desc>Created with Sketch.</desc>
    <defs>
        <linearGradient x1="100%" y1="50%" x2="0%" y2="50%" id="linearGradient-1">
            <stop stop-color="#FF995E" offset="0%"></stop>
            <stop stop-color="#FF5F02" offset="100%"></stop>
        </linearGradient>
    </defs>
    <g id="logo4" stroke="none" stroke-width="1" fill="none" fill-rule="evenodd">
        <g id="Group-Copy" transform="translate(0.000000, 7.260000)">
            <path d="M32.2253977,37.1970977 C30.8864557,37.1970977 29.6274744,36.6722783 28.6819642,35.7201013 C27.734224,34.7688861 27.2133651,33.5028434 27.2133651,32.1550481 C27.2133651,30.8094971 27.734224,29.5434544 28.6794157,28.5928804 C29.6258816,27.6400622 30.8848629,27.1152428 32.2234862,27.1152428 C33.5614724,27.1152428 34.819498,27.6384592 35.7646897,28.5906362 C37.7181496,30.5571862 37.7181496,33.7567573 35.7646897,35.7223455 C34.819498,36.6738812 33.5621096,37.1970977 32.2253977,37.1970977 Z M5.01171403,10.315571 C3.67309069,10.315571 2.41410939,9.79043102 1.46732487,8.83761286 C0.52149605,7.88639769 -5.90638649e-13,6.62067559 -5.90638649e-13,5.27352151 C-5.90638649e-13,3.92700863 0.51990321,2.66160712 1.46509489,1.71135375 C2.41283512,0.757894392 3.67213499,0.232754369 5.01075832,0.232754369 C6.34810739,0.232754369 7.60581442,0.756932597 8.55068753,1.70814777 C9.49810919,2.66096593 10.0192867,3.92764983 10.0192867,5.27416271 C10.0192867,6.62131678 9.49810919,7.88735949 8.55132467,8.84017765 C7.60581442,9.79139282 6.34874452,10.315571 5.01171403,10.315571 Z M32.0014443,10.1677752 C30.6618652,10.1677752 29.4041582,9.6429558 28.4580108,8.69077884 C26.5055066,6.72519063 26.5039138,3.52722255 28.4551437,1.56291673 C29.4019282,0.610098573 30.6605909,0.0843173541 32.00017,0.0843173541 C33.3378376,0.0843173541 34.5958632,0.609136779 35.5420106,1.56131374 C37.4945147,3.52626075 37.4945147,6.72583183 35.5420106,8.69398482 C34.5965003,9.643597 33.3387933,10.1677752 32.0014443,10.1677752 Z M5.14168983,37.1970977 C3.80338506,37.1970977 2.54440376,36.6722783 1.5969821,35.7201013 C0.650834716,34.7682449 0.130612939,33.5028434 0.130931361,32.1556893 C0.130931361,30.8094971 0.653383262,29.5434544 1.59984921,28.5912774 C1.7979986,28.3905829 2.02163344,28.2072006 2.30547765,28.0138798 C2.39085391,27.9542486 2.46985881,27.9064794 2.55141226,27.8564661 C2.73681892,27.7493862 2.92158844,27.6516038 3.09393381,27.5720954 C3.18791141,27.5297764 3.28411899,27.4864956 3.38574223,27.4473826 C3.56573323,27.380057 3.76706829,27.3197845 3.99643736,27.2649622 C4.04231117,27.2527795 4.08276932,27.2418791 4.12386461,27.230017 C4.14966863,27.2229638 4.17419838,27.2143077 4.20063954,27.2078957 L5.31562804,27.1315933 C5.45707229,27.1380053 5.60839216,27.1556382 5.76990621,27.1771183 L5.83361984,27.1854538 C5.87152945,27.1902628 5.92281892,27.1944306 5.97410839,27.1969954 L6.0190265,27.2002014 L6.0699974,27.2104605 L6.11427837,27.2104605 C6.19583182,27.2136665 6.27738526,27.2152695 6.357983,27.2152695 C8.28054174,27.2152695 10.1779336,26.3913318 11.5643422,24.9556926 C12.9450165,23.5264654 13.7057572,21.6038373 13.6509635,19.6796063 L13.6496892,19.6225398 L13.6388579,19.5629085 C13.6286637,19.5093686 13.6254781,19.4545463 13.6219738,19.4006858 C13.6171953,19.3359249 13.6117796,19.2718053 13.6038154,19.2067238 L13.5913913,19.0938732 C13.5805599,18.9967319 13.5700472,18.9021554 13.5633573,18.8056553 L13.6490521,17.6793935 C13.6544678,17.6511809 13.6643434,17.625533 13.6723076,17.5982821 L13.6923774,17.5287123 C13.7436668,17.3155144 13.7987791,17.1013548 13.8787397,16.8945689 C13.919835,16.7765887 13.9593375,16.6897065 14.0020256,16.6009008 C14.0912247,16.4040534 14.1836094,16.2251596 14.2922412,16.0414568 C14.3397078,15.9619484 14.3855816,15.8814782 14.4397382,15.8032522 C14.6423476,15.5063782 14.8261614,15.2793946 15.0169837,15.0870356 C15.9631311,14.1351792 17.2208381,13.611001 18.5613729,13.611001 C19.8990405,13.611001 21.1586589,14.134538 22.1054435,15.0857532 C24.0563548,17.0513414 24.0550805,20.2502713 22.1009835,22.2168213 C21.9034712,22.4159129 21.6795178,22.5989745 21.3947179,22.79486 C21.3115716,22.8519265 21.2325667,22.8993751 21.1532433,22.946503 C20.9732523,23.0545447 20.7916684,23.1507242 20.6110403,23.2347209 C20.5129213,23.2789635 20.4151209,23.3241678 20.3205061,23.3597543 C20.1287281,23.4312477 19.9254816,23.492482 19.712041,23.5405717 L19.5919408,23.5745551 C19.5648625,23.5819289 19.5381028,23.590585 19.5113431,23.5979588 L18.3852047,23.6781084 C18.2533175,23.6726582 18.1150589,23.6547047 17.9685175,23.6357894 L17.8684871,23.6236067 C17.8350375,23.6178359 17.7821552,23.6143093 17.7295914,23.6111033 L17.6897704,23.6072562 L17.6324282,23.5960352 L17.5871915,23.5960352 C17.5050009,23.5931498 17.4244032,23.592188 17.3428497,23.592188 C15.4206095,23.592188 13.5238548,24.4154845 12.1380834,25.8508031 C10.7564534,27.2806715 9.9960312,29.2052231 10.0505063,31.1294542 L10.0520992,31.1868413 L10.0626119,31.2435872 C10.0731247,31.2980889 10.0753547,31.3519494 10.0798146,31.4067717 C10.0845931,31.4715326 10.0903274,31.5359728 10.097973,31.5997719 C10.0998844,31.6379231 10.1078486,31.7074929 10.11645,31.7754598 C10.1250513,31.8527239 10.1349269,31.9277439 10.1349269,32.0050081 L10.1349269,32.032259 L10.0543292,33.1117135 C10.0489135,33.1341554 10.0132339,33.2588681 10.0030397,33.2976605 C9.94888311,33.5300943 9.88739946,33.7365596 9.81922588,33.9215448 C9.7819534,34.0247775 9.74404379,34.1139038 9.69976282,34.2065567 C9.61279372,34.3979539 9.51817898,34.5816567 9.41082152,34.7682449 C9.36367343,34.8445473 9.30792401,34.9343148 9.25121888,35.0205558 C9.06485651,35.2921026 8.88008699,35.5210097 8.68225617,35.7210631 C7.73833877,36.6722783 6.48063174,37.1970977 5.14264553,37.1970977 L5.14168983,37.1970977 Z M18.6700046,37.1970977 C17.3304256,37.1970977 16.0717628,36.6722783 15.1249783,35.7191395 C14.1788309,34.7676037 13.6582906,33.5022022 13.6576521,32.1550481 C13.6566977,30.8094971 14.1775566,29.5440956 15.1227483,28.5944834 C15.3158006,28.3989184 15.5346569,28.219704 15.8344296,28.0109945 C15.9086559,27.9603399 15.9886165,27.9112884 16.0724,27.8625574 C16.2565323,27.751951 16.4333377,27.6580157 16.6171515,27.5730572 C16.7152705,27.528494 16.8105223,27.4839308 16.9076856,27.4473826 C17.0937294,27.378454 17.2963388,27.3181815 17.5113723,27.270733 C17.5113723,27.270733 17.6875404,27.2194372 17.7101588,27.2136665 L18.8429871,27.1299903 C18.9767857,27.1364023 19.1207785,27.1556382 19.2714613,27.1751947 L19.3552447,27.1864156 C19.4109941,27.1918658 19.457505,27.1963542 19.5043346,27.1969954 C19.5231301,27.1985984 19.541607,27.1985984 19.5594469,27.2002014 L19.5951265,27.2053309 L19.6422746,27.2098193 C19.7251023,27.2120635 19.8092043,27.2143077 19.8923506,27.2143077 C21.8107679,27.2136665 23.7049741,26.3913318 25.0885155,24.9572956 C26.4691899,23.5290302 27.229612,21.6038373 27.1754555,19.6796063 L27.168447,19.4446078 L27.14774,19.4186393 C27.1467843,19.4106243 27.1467843,19.401327 27.1458286,19.3929914 C27.1429615,19.3381691 27.1397758,19.2827056 27.1343602,19.2272421 L27.1158832,19.0656606 C27.1053705,18.9768548 27.093902,18.8893315 27.0907163,18.8002052 L27.168447,17.7088885 C27.1744997,17.6825995 27.2133651,17.547307 27.2226035,17.506591 C27.2863172,17.2459446 27.3420666,17.0551886 27.4060988,16.8859127 C27.4414599,16.784283 27.4851037,16.6913095 27.5290661,16.5938476 C27.6093453,16.4178392 27.7030043,16.2392659 27.8180074,16.0424186 L27.83967,16.0065115 C27.8785353,15.9401477 27.9154892,15.874425 27.9613631,15.810626 C28.1665209,15.5099048 28.3487419,15.2832418 28.5411571,15.0896004 C29.4882602,14.1367822 30.7472415,13.6119628 32.0861834,13.6119628 C33.4241696,13.6119628 34.681558,14.1358204 35.6273869,15.0870356 C37.5795724,17.0523032 37.5795724,20.2528361 35.6273869,22.2200273 C35.4381574,22.4098215 35.2122926,22.5935243 34.9179356,22.798066 C34.8612305,22.837179 34.8070739,22.8695595 34.7525987,22.9025811 L34.6649925,22.9574034 C34.4974257,23.0571095 34.3148861,23.153289 34.1374437,23.2353621 C34.0370947,23.2805665 33.9427985,23.3241678 33.8430867,23.3616779 C33.6675556,23.4280417 33.4745033,23.484467 33.2307987,23.5431365 C33.1820578,23.554678 33.1425553,23.5671814 33.10369,23.5790435 C33.0762932,23.5860967 33.0508077,23.5944322 33.0243666,23.6008442 L31.9109709,23.6781084 C31.7481826,23.6710552 31.5716958,23.6470103 31.4009433,23.6242479 C31.3429639,23.6171947 31.2977272,23.6149505 31.2534463,23.6127063 C31.2365621,23.6117445 31.2193595,23.6117445 31.2024753,23.6095003 L31.107542,23.5992412 C31.0247143,23.5960352 30.9425237,23.5944322 30.8600146,23.5944322 C28.940323,23.5944322 27.0457982,24.4177287 25.6603454,25.8514443 C24.2809453,27.2816333 23.5208417,29.2052231 23.5769097,31.1310572 L23.5785025,31.1874825 L23.5893339,31.2426254 C23.6001652,31.2996919 23.6023952,31.3583614 23.6065365,31.4154279 C23.6103594,31.4747385 23.6148193,31.5327668 23.6211907,31.5895127 C23.6250135,31.6372819 23.632022,31.697875 23.6380748,31.7575062 C23.648269,31.8427854 23.6584632,31.9283851 23.6606931,32.0136643 L23.5785025,33.120049 C23.5721312,33.1444145 23.5294431,33.2934927 23.5294431,33.2934927 C23.4759236,33.5278501 23.4163514,33.7333536 23.3456292,33.9263538 C23.3121796,34.0170831 23.2726771,34.1042858 23.232219,34.1956564 L23.2185205,34.2277162 C23.1353743,34.408213 23.0420338,34.5861451 22.9381806,34.76023 C22.8872097,34.8464709 22.8365573,34.9304677 22.7830379,35.0102966 C22.5867999,35.2969115 22.4020304,35.5248569 22.2041996,35.7258721 C21.2625121,36.6738812 20.0070351,37.1970977 18.6700046,37.1970977 Z M5.14360124,23.5851349 C3.8049779,23.5851349 2.54663374,23.0612772 1.60080492,22.1097415 C0.654338966,21.1566027 0.132524348,19.8902394 0.131885896,18.5430853 C0.130931507,17.1975342 0.650834716,15.9330945 1.5969821,14.9818794 C1.7909901,14.7863144 2.01685491,14.602291 2.30738906,14.4006346 C2.38288971,14.3493389 2.46858454,14.2967608 2.5539608,14.2451445 C2.72694331,14.1422324 2.90374862,14.0476559 3.09265953,13.9604532 C3.18950425,13.91589 3.28571183,13.871968 3.3879722,13.8338168 C3.57210459,13.76585 3.77535106,13.7058981 3.98688031,13.658129 L4.11430757,13.622222 C4.13788161,13.6151688 4.16049995,13.6074744 4.18375542,13.6020243 L5.31753945,13.5199511 C5.46471793,13.5260425 5.624002,13.547202 5.79061314,13.5696438 L5.82565563,13.5744528 C5.8839536,13.5805442 5.92887171,13.583109 5.97474552,13.5853532 C5.9909925,13.5859943 6.00723948,13.5859943 6.02348645,13.5885591 L6.07222738,13.5968947 L6.11810119,13.5988183 C6.20220318,13.6010625 6.2850309,13.6026655 6.36817718,13.6026655 C8.2859574,13.6026655 10.1801636,12.7803308 11.5643422,11.3453328 C12.9443794,9.91578496 13.7041644,7.99123334 13.6490521,6.06604052 L13.6474593,6.01057701 L13.6366279,5.9560753 C13.6248409,5.89484102 13.6232481,5.83328615 13.6194253,5.77076948 C13.6165581,5.72011495 13.6133725,5.66913982 13.6079568,5.6162411 L13.5907541,5.46075092 C13.5789671,5.36873921 13.5674986,5.2748039 13.5652687,5.1811892 L13.6404508,4.122253 L13.6474593,4.09788753 L13.6474593,4.07704864 C13.653512,4.05268317 13.6949259,3.91194051 13.6949259,3.91194051 C13.758321,3.64103494 13.8150261,3.44514938 13.8787397,3.27234689 C13.9144194,3.1771292 13.9587003,3.0819115 14.0036184,2.98348782 C14.0851719,2.80234978 14.1807423,2.61864695 14.2909669,2.43205874 L14.307851,2.40320489 C14.3511763,2.33042908 14.394183,2.25797386 14.4429239,2.18519804 C14.6413919,1.89537718 14.8239314,1.66903477 15.0147537,1.47795818 C15.9615382,0.524819424 17.220201,4.26325641e-14 18.55978,4.26325641e-14 C19.8984034,4.26325641e-14 21.156429,0.524178228 22.1032135,1.47603459 C24.0557176,3.4419434 24.0541248,6.64151448 22.1009835,8.60646148 C21.9076126,8.80170585 21.6772879,8.99021765 21.3953551,9.18225604 C21.3185801,9.23675775 21.2526365,9.27587074 21.1841444,9.31658673 L21.1471905,9.33838741 C20.9633767,9.44835263 20.7821114,9.54453212 20.6116774,9.62339931 C20.5106913,9.67020666 20.4160766,9.71348743 20.319869,9.74907384 C20.1319138,9.81960547 19.9324901,9.87891615 19.707581,9.93117368 C19.6601144,9.94271522 19.6174263,9.95553915 19.5750567,9.96708069 C19.5492527,9.97413385 19.5231301,9.98246941 19.4963704,9.98920197 L18.3858418,10.0671074 C18.2456718,10.0600542 18.0949891,10.0414595 17.9372979,10.0209412 L17.8691243,10.012285 C17.8178348,10.0061937 17.7706867,10.0036289 17.7248129,10.0007435 C17.7060174,9.99978172 17.6875404,9.99978172 17.6690635,9.99657573 L17.631791,9.99208736 L17.5827315,9.98824018 C17.4999038,9.98503419 17.4173947,9.9834312 17.3342484,9.9834312 C15.4161496,9.9834312 13.5216248,10.8057659 12.1371277,12.2391609 C10.7564534,13.6690293 9.9960312,15.5942221 10.0505063,17.5200561 L10.0520992,17.5764814 L10.0619748,17.6316244 C10.0737618,17.6880497 10.0759918,17.7463985 10.0798146,17.8037856 C10.0836374,17.8627757 10.088416,17.920804 10.0944688,17.9801147 C10.0992473,18.0269221 10.1062558,18.0868739 10.1132643,18.1465052 C10.1225027,18.2308226 10.1333341,18.3135369 10.1349269,18.3972131 L10.0549663,19.4959035 C10.0489135,19.5241161 10.039675,19.55297 10.0310737,19.582465 L10.0030397,19.6808887 C9.94729027,19.9271082 9.88835516,20.1316499 9.82145585,20.3137498 C9.78577622,20.4086469 9.73990241,20.5070705 9.69434716,20.6083796 C9.61183801,20.7891971 9.51881612,20.9684115 9.41018438,21.1508319 C9.35825777,21.2380347 9.31015398,21.3201078 9.25790881,21.3976926 C9.05243236,21.6974521 8.87562704,21.9177031 8.68225617,22.1107033 C7.73642736,23.0619184 6.4799946,23.5851349 5.14360124,23.5851349 Z" id="Combined-Shape" fill="url(#linearGradient-1)"></path>
            <polyline id="Fill-10" fill="#333436" points="46.2124505 14.4108938 42.5804551 14.4108938 42.5804551 11.840016 52.91831 11.840016 52.91831 14.4108938 49.246175 14.4108938 49.246175 25.3772794 46.2124505 25.3772794 46.2124505 14.4108938"></polyline>
            <polyline id="Fill-11" fill="#333436" points="62.5365193 19.6526761 57.5869261 19.6526761 57.5869261 22.8666741 63.1150391 22.8666741 63.1150391 25.3772794 54.5535202 25.3772794 54.5535202 11.840016 62.8356548 11.840016 62.8356548 14.3506213 57.5869261 14.3506213 57.5869261 17.162589 62.5365193 17.162589 62.5365193 19.6526761"></polyline>
            <path d="M75.0486017,25.0156445 C74.5095844,25.2769321 73.2321262,25.5981716 71.61603,25.5981716 C66.9655722,25.5981716 64.5705769,22.6659795 64.5705769,18.8095025 C64.5705769,14.1900016 67.8438646,11.6393214 71.9151655,11.6393214 C73.4917592,11.6393214 74.6889383,11.9403633 75.2279556,12.2417257 L74.5892265,14.6519837 C73.9909555,14.3906961 73.1324143,14.1499268 72.0349471,14.1499268 C69.6399518,14.1499268 67.7642226,15.6160228 67.7642226,18.6286851 C67.7642226,21.3403055 69.360249,23.0474915 72.0546983,23.0474915 C72.9928815,23.0474915 73.9909555,22.8666741 74.6092963,22.605707 L75.0486017,25.0156445" id="Fill-12" fill="#333436"></path>
            <polyline id="Fill-13" fill="#333436" points="80.1157466 11.840016 80.1157466 17.0420441 85.1252307 17.0420441 85.1252307 11.840016 88.158318 11.840016 88.158318 25.3772794 85.1252307 25.3772794 85.1252307 19.7132691 80.1157466 19.7132691 80.1157466 25.3772794 77.0826593 25.3772794 77.0826593 11.840016 80.1157466 11.840016"></polyline>
            <polyline id="Fill-14" fill="#333436" points="90.9913445 11.840016 92.7476106 11.840016 92.7476106 23.9108627 98.4952171 23.9108627 98.4952171 25.3772794 90.9913445 25.3772794 90.9913445 11.840016"></polyline>
            <path d="M100.689514,18.6687599 C100.689514,21.5813955 102.246357,24.172471 105.00006,24.172471 C107.754719,24.172471 109.311561,21.6214703 109.311561,18.5482149 C109.311561,15.836915 107.914321,13.0249473 105.020448,13.0249473 C102.126575,13.0249473 100.689514,15.7163701 100.689514,18.6687599 Z M111.147151,18.4680653 C111.147151,23.107764 108.33292,25.5981716 104.900667,25.5981716 C101.328244,25.5981716 98.8536062,22.8064016 98.8536062,18.7088347 C98.8536062,14.4108938 101.488165,11.5989261 105.080021,11.5989261 C108.772225,11.5989261 111.147151,14.4310915 111.147151,18.4680653 L111.147151,18.4680653 Z" id="Fill-15" fill="#333436"></path>
            <path d="M123.658915,24.7748752 C122.880334,25.0755964 121.32381,25.5173808 119.507653,25.5173808 C117.472003,25.5173808 115.795697,24.9954468 114.478418,23.7300453 C113.32106,22.605707 112.602689,20.7978532 112.602689,18.6889576 C112.602689,14.6519837 115.37678,11.6992733 119.887068,11.6992733 C121.443592,11.6992733 122.68091,12.0407105 123.259749,12.3218752 L122.820762,13.7482171 C122.102072,13.4064593 121.204029,13.16569 119.847247,13.16569 C116.574278,13.16569 114.438597,15.2143131 114.438597,18.6084874 C114.438597,22.0433776 116.473929,24.0714825 119.627435,24.0714825 C120.765042,24.0714825 121.543304,23.9108627 121.94247,23.7101682 L121.94247,19.6731944 L119.228588,19.6731944 L119.228588,18.2670502 L123.658915,18.2670502 L123.658915,24.7748752" id="Fill-16" fill="#333436"></path>
            <path d="M127.329457,18.6687599 C127.329457,21.5813955 128.886299,24.172471 131.640002,24.172471 C134.394343,24.172471 135.951185,21.6214703 135.951185,18.5482149 C135.951185,15.836915 134.553945,13.0249473 131.660391,13.0249473 C128.766518,13.0249473 127.329457,15.7163701 127.329457,18.6687599 Z M137.787093,18.4680653 C137.787093,23.107764 134.972862,25.5981716 131.540291,25.5981716 C127.967867,25.5981716 125.493549,22.8064016 125.493549,18.7088347 C125.493549,14.4108938 128.127789,11.5989261 131.719963,11.5989261 C135.411849,11.5989261 137.787093,14.4310915 137.787093,18.4680653 L137.787093,18.4680653 Z" id="Fill-17" fill="#333436"></path>
        </g>
    </g>
</svg>