<?xml version="1.0" encoding="UTF-8"?>
<svg width="143px" height="52px" viewBox="0 0 143 52" version="1.1" xmlns="http://www.w3.org/2000/svg" xmlns:xlink="http://www.w3.org/1999/xlink">
    <!-- Generator: Sketch 55.2 (78181) - https://sketchapp.com -->
    <title>logo3</title>
    <desc>Created with Sketch.</desc>
    <defs>
        <linearGradient x1="100%" y1="50%" x2="0%" y2="50%" id="linearGradient-1">
            <stop stop-color="#FF995E" offset="0%"></stop>
            <stop stop-color="#FF5F02" offset="100%"></stop>
        </linearGradient>
    </defs>
    <g id="logo3" stroke="none" stroke-width="1" fill="none" fill-rule="evenodd">
        <g id="Group-Copy" transform="translate(0.000000, 6.050000)">
            <path d="M60.2696569,14.8419236 L53.7985684,14.8419236 L52.5961702,17.7789264 L48.1800896,17.7789264 L54.9353812,2.66200012 L59.1984294,2.66200012 L65.9755828,17.7789264 L61.4720551,17.7789264 L60.2696569,14.8419236 Z M59.0016733,11.6889647 L57.0341126,6.85154827 L55.066552,11.6889647 L59.0016733,11.6889647 Z M81.7597918,2.66200012 L81.7597918,17.7789264 L78.1963208,17.7789264 L71.4410292,9.72376427 L71.4410292,17.7789264 L67.1998428,17.7789264 L67.1998428,2.66200012 L70.7633138,2.66200012 L77.5186055,10.7171623 L77.5186055,2.66200012 L81.7597918,2.66200012 Z M84.8204418,2.66200012 L89.1490753,2.66200012 L89.1490753,17.7789264 L84.8204418,17.7789264 L84.8204418,2.66200012 Z M106.048235,17.7789264 L106.004512,9.76695549 L102.06939,16.2888294 L100.145553,16.2888294 L96.2322937,9.98291158 L96.2322937,17.7789264 L92.231587,17.7789264 L92.231587,2.66200012 L95.795058,2.66200012 L101.173057,11.3866262 L106.419886,2.66200012 L109.983357,2.66200012 L110.02708,17.7789264 L106.048235,17.7789264 Z M123.340908,14.8419236 L116.869819,14.8419236 L115.667421,17.7789264 L111.25134,17.7789264 L118.006632,2.66200012 L122.26968,2.66200012 L129.046833,17.7789264 L124.543306,17.7789264 L123.340908,14.8419236 Z M122.072924,11.6889647 L120.105363,6.85154827 L118.137803,11.6889647 L122.072924,11.6889647 Z M130.271093,2.66200012 L134.599727,2.66200012 L134.599727,14.3884158 L141.901563,14.3884158 L141.901563,17.7789264 L130.271093,17.7789264 L130.271093,2.66200012 Z" id="ANIMAL" fill="#333436" fill-rule="nonzero"></path>
            <path d="M53.8300325,24.5284296 C55.0982082,24.5284296 56.091913,24.8275858 56.8111768,25.425907 C57.5304406,26.0242282 57.8900671,26.8469076 57.8900671,27.8939698 C57.8900671,28.9410319 57.5304406,29.7613741 56.8111768,30.355021 C56.091913,30.9486678 55.0982082,31.2454868 53.8300325,31.2454868 L51.1611986,31.2454868 L51.1611986,34.3445883 L50.1107001,34.3445883 L50.1107001,24.5284296 L53.8300325,24.5284296 Z M53.8016407,30.3339864 C54.7858964,30.3339864 55.5382729,30.121305 56.0587928,29.695936 C56.5793126,29.270567 56.8395686,28.6699176 56.8395686,27.8939698 C56.8395686,27.0993244 56.5793126,26.4893263 56.0587928,26.0639573 C55.5382729,25.6385883 54.7858964,25.425907 53.8016407,25.425907 L51.1611986,25.425907 L51.1611986,30.3339864 L53.8016407,30.3339864 Z M66.6289604,24.5284296 L67.6794589,24.5284296 L67.6794589,33.447111 L73.2442615,33.447111 L73.2442615,34.3445883 L66.6289604,34.3445883 L66.6289604,24.5284296 Z M87.7183086,31.7222717 L82.1818978,31.7222717 L80.9894401,34.3445883 L79.8963539,34.3445883 L84.4390499,24.5284296 L85.4753525,24.5284296 L90.0180485,34.3445883 L88.9107663,34.3445883 L87.7183086,31.7222717 Z M87.3350186,30.8808866 L84.9501032,25.6082071 L82.5651878,30.8808866 L87.3350186,30.8808866 Z M106.436937,24.5284296 L106.436937,34.3445883 L105.570986,34.3445883 L99.1828196,26.3794767 L99.1828196,34.3445883 L98.1323211,34.3445883 L98.1323211,24.5284296 L98.9982726,24.5284296 L105.400635,32.4935413 L105.400635,24.5284296 L106.436937,24.5284296 Z M123.168137,33.447111 L123.168137,34.3445883 L116.141154,34.3445883 L116.141154,24.5284296 L122.955198,24.5284296 L122.955198,25.425907 L117.191652,25.425907 L117.191652,28.9176549 L122.330577,28.9176549 L122.330577,29.8011092 L117.191652,29.8011092 L117.191652,33.447111 L123.168137,33.447111 Z M134.036419,25.425907 L130.544221,25.425907 L130.544221,24.5284296 L138.579115,24.5284296 L138.579115,25.425907 L135.086917,25.425907 L135.086917,34.3445883 L134.036419,34.3445883 L134.036419,25.425907 Z" id="PLANET" fill="#333436" fill-rule="nonzero"></path>
            <path d="M17.3815685,0 C9.93255406,0 3.43652573,4.07411375 0,10.112747 L3.76541825,10.5615969 C3.76541825,10.5615969 6.44629336,6.65740484 9.85313855,6.52194837 L10.6480958,11.1683457 L17.6896044,12.212723 C17.6896044,12.212723 19.257058,15.6848971 27.479371,15.9181387 C27.479371,15.9181387 26.5255827,26.5390479 12.9880458,29.625692 C8.5471946,30.6380087 5.41629826,32.2859288 3.21432274,34.0420537 C6.83294262,37.6777374 11.8441415,39.9300017 17.3815685,39.9300017 C28.4171158,39.9300017 37.3629923,30.9914779 37.3629923,19.9650009 C37.3629923,8.93852381 28.4171158,0 17.3815685,0" id="Fill-22" fill="url(#linearGradient-1)"></path>
        </g>
    </g>
</svg>