<?xml version="1.0" encoding="UTF-8"?>
<svg width="149px" height="52px" viewBox="0 0 149 52" version="1.1" xmlns="http://www.w3.org/2000/svg" xmlns:xlink="http://www.w3.org/1999/xlink">
    <!-- Generator: Sketch 55.2 (78181) - https://sketchapp.com -->
    <title>logo5</title>
    <desc>Created with Sketch.</desc>
    <defs>
        <linearGradient x1="100%" y1="50%" x2="0%" y2="50%" id="linearGradient-1">
            <stop stop-color="#FF995E" offset="0%"></stop>
            <stop stop-color="#FF5F02" offset="100%"></stop>
        </linearGradient>
    </defs>
    <g id="logo5" stroke="none" stroke-width="1" fill="none" fill-rule="evenodd">
        <g id="Group-Copy">
            <path d="M14.9539129,13.8492994 L16.0091677,13.8492994 C17.7541315,13.8492994 19.1680349,15.2820659 19.1680349,17.0503094 C19.1680349,23.2822612 19.14811,29.5149895 19.1680349,35.7477178 C19.1680349,35.8230448 19.1680349,35.8983719 19.1695676,35.9744754 C19.174932,36.3984811 19.2316414,36.8162743 19.2469683,37.2379503 C19.2040531,36.0536853 19.2852855,37.3218195 19.3741813,37.6868061 C19.4699742,38.0828554 19.5864584,38.4734687 19.7228675,38.8578694 C19.7420261,38.9122291 19.7788106,38.9898859 19.8117634,39.0698723 C19.8362863,39.1234554 19.8608093,39.1770386 19.8853323,39.2306217 C20.0692547,39.6049271 20.273102,39.9706902 20.4953416,40.3240283 C20.5857701,40.4676932 20.6800303,40.609805 20.7765896,40.7495871 C20.779655,40.75347 20.7827204,40.7581294 20.7857857,40.7620122 C21.3068992,41.2900779 21.8318444,41.8220264 22.3537242,42.3508687 C22.4977967,42.4502693 22.6403366,42.5519996 22.7890072,42.6475174 C23.1223666,42.8634031 23.4664547,43.0622043 23.819739,43.2415913 C23.9415876,43.3037167 24.1132485,43.3565232 24.2381625,43.4318502 C24.6167361,43.5693026 25.0014404,43.6865643 25.3915092,43.7844117 C25.7509242,43.8744935 27.0023629,43.9560331 25.8344556,43.9117688 C26.2888972,43.9296298 26.7387408,43.9878724 27.1962477,43.9925318 C27.500486,43.9925318 27.803958,43.9801067 28.10743,43.9568097 C28.1809989,43.9505971 28.3028475,43.925747 28.4116683,43.9140985 C28.417799,43.9133219 28.4239298,43.9125453 28.4292942,43.9117688 C28.7649525,43.8457606 29.0975455,43.7649976 29.4263068,43.6694798 C29.6309205,43.6096841 29.8523937,43.5064007 30.0731006,43.4186486 C30.0309517,43.4598067 30.1160158,43.4714552 30.279247,43.3868093 C30.3420871,43.3541935 30.4041609,43.3239074 30.4670011,43.2928447 C30.4991875,43.285079 30.5313739,43.2780899 30.5635603,43.2734305 C30.5329066,43.2780899 30.5045519,43.2819728 30.4777299,43.2866322 C30.6057092,43.2229537 30.7336886,43.1592752 30.8593689,43.0909372 C31.1436822,42.9356238 31.4218649,42.7671087 31.6931504,42.5884983 C31.7789809,42.5318089 31.8625123,42.4727898 31.9468101,42.4145472 C31.9330159,42.4324083 31.9192217,42.4502693 31.9046612,42.47046 C31.9192217,42.4494927 31.9383803,42.4285254 31.9552398,42.4083347 C32.015781,42.3656235 32.0763221,42.3221357 32.1376296,42.2817542 C32.3062251,42.1668223 32.3223183,42.0852827 32.2403196,42.1256642 C32.4518303,41.9447241 32.6909294,41.7731027 32.861824,41.5999282 C33.0695031,41.3894785 33.2687523,41.1720397 33.4603382,40.9468352 C33.4611045,40.9460586 33.4618708,40.9452821 33.4618708,40.9445055 C33.524711,40.852094 33.6151395,40.7503637 33.6580547,40.6874618 C33.8619021,40.3877068 34.0527215,40.0794096 34.2289805,39.7625702 C34.3814828,39.4876654 34.4895373,39.0885099 34.676525,38.835349 C34.7225056,38.7033326 34.7677199,38.5705396 34.8098688,38.4377466 C34.9209885,38.0836319 35.0152488,37.7233048 35.0926495,37.3590948 C35.1194715,37.2325143 35.1424618,37.1051573 35.1669848,36.9785768 C35.1945731,36.6042714 35.2198624,36.2338489 35.2229278,35.8579904 C35.2374883,34.0780983 35.2229278,32.2966532 35.2229278,30.5167612 L35.2229278,17.0503094 C35.2229278,15.2820659 36.6375976,13.8492994 38.3817951,13.8492994 L39.4385825,13.8492994 C41.1827799,13.8492994 42.5974497,15.2820659 42.5974497,17.0503094 L42.5974497,17.8796832 C42.5974497,23.8716757 42.6480284,29.8659979 42.5974497,35.8579904 C42.5246471,44.3287854 35.6099312,51.4646613 27.1962477,51.4646613 C27.1295759,51.4646613 27.062904,51.4623316 26.9969985,51.4584488 C19.8585103,51.2914869 13.2327058,45.9626827 12.0663313,38.6808121 C11.6777952,36.2571459 11.7942794,33.7923216 11.7942794,31.3461349 L11.7942794,17.0503094 C11.7942794,15.2820659 13.2089492,13.8492994 14.9539129,13.8492994 Z M27.6660162,37.6161385 L26.6099951,37.6161385 C24.8657976,37.6161385 23.4511278,36.1825954 23.4511278,34.4151285 C23.4511278,28.1824002 23.4718191,21.9504484 23.4511278,15.7177201 C23.4511278,15.6423931 23.4511278,15.5662895 23.4503615,15.4909625 C23.4449971,15.0669568 23.3875214,14.6491636 23.3721945,14.2282642 C23.4151097,15.4117526 23.3346437,14.1436184 23.2457478,13.7786318 C23.1499549,13.3825825 23.0334707,12.9911927 22.8970616,12.6075685 C22.877903,12.5532088 22.8411186,12.4747755 22.8073994,12.3955656 C22.7836428,12.3419825 22.7591198,12.2883993 22.7345968,12.2348162 C22.5506744,11.8597342 22.3468271,11.4947477 22.1245875,11.1414096 C22.034159,10.9977447 21.9398988,10.8548563 21.8433395,10.7150742 C21.8402742,10.7111914 21.8372088,10.7080851 21.8333771,10.7034257 C21.3130299,10.17536 20.7880848,9.6426349 20.2662049,9.11534577 C20.1221324,9.0151686 19.9788262,8.9134383 19.8309219,8.81714396 C19.4975626,8.60203485 19.1527081,8.40401022 18.7994238,8.22307006 C18.6783416,8.16094468 18.5066807,8.10891468 18.3810003,8.03358766 C18.0031931,7.89613527 17.6184887,7.77809705 17.22842,7.68102615 C16.8682386,7.59094436 15.6167999,7.5094048 16.7854735,7.55289257 C16.3310319,7.53580809 15.880422,7.47678898 15.4236814,7.47290614 C15.1194431,7.47290614 14.8152048,7.48455465 14.5117328,7.50862824 C14.4389302,7.51406421 14.3163153,7.53969092 14.2074945,7.55056286 C14.2013638,7.552116 14.1959994,7.55289257 14.1898686,7.55366913 C13.8542103,7.61967735 13.5216173,7.70044033 13.1936223,7.7959581 C12.9882423,7.85575377 12.7675354,7.95903721 12.5468285,8.0467893 C12.5889774,8.00485468 12.503147,7.99320617 12.3399158,8.07862856 C12.277842,8.11124438 12.2157682,8.14230707 12.1529281,8.17336976 C12.1207416,8.18035886 12.0885552,8.18734797 12.0563688,8.19200737 C12.0870225,8.18734797 12.1146109,8.18346513 12.1421993,8.17880573 C12.0142199,8.24248424 11.8862406,8.30616275 11.7605603,8.37450066 C11.4754805,8.53059067 11.1980643,8.69832918 10.9267787,8.87693964 C10.8409483,8.93362904 10.7566505,8.99264815 10.6731191,9.05166726 C10.6869133,9.03302965 10.7007074,9.0151686 10.715268,8.99497785 C10.7007074,9.01594517 10.6815489,9.03613591 10.6646893,9.05710323 C10.6041482,9.09981442 10.5436071,9.14252562 10.4822996,9.18446025 C10.3137041,9.29861563 10.2976108,9.38015518 10.3796096,9.33977369 C10.1680988,9.52071385 9.9289997,9.69155863 9.75810514,9.86550968 C9.55042609,10.0759594 9.35041048,10.2933982 9.15959099,10.5186027 C9.15882465,10.5193793 9.1580583,10.5201558 9.15729196,10.5209324 C9.09445181,10.6133439 9.00478964,10.7142976 8.96187441,10.7779761 C8.75726074,11.0777311 8.56720759,11.3860283 8.39094863,11.7028677 C8.2384463,11.9777725 8.13039189,12.3761514 7.94340412,12.6293123 C7.89665717,12.7613288 7.85220926,12.8941218 7.81006038,13.0276913 C7.69894059,13.381806 7.60468036,13.7421331 7.52727969,14.1063431 C7.49969133,14.2329236 7.47746737,14.3602806 7.45294438,14.4876376 C7.42535602,14.8611665 7.39930035,15.231589 7.39623498,15.6074475 C7.3824408,17.3873396 7.39623498,19.1680081 7.39623498,20.9479002 L7.39623498,34.4151285 C7.39623498,36.1825954 5.98233152,37.6161385 4.23736775,37.6161385 L3.18134663,37.6161385 C1.4371492,37.6161385 0.0224794045,36.1825954 0.0224794045,34.4151285 L0.0224794045,33.5857547 C0.0224794045,27.5937622 -0.0280992556,21.5986635 0.0224794045,15.6074475 C0.094515678,7.13665255 7.00999794,-1.42108547e-13 15.4236814,-1.42108547e-13 C15.4903533,-1.42108547e-13 15.5570252,0.00310626879 15.6229307,0.00698910478 C22.7614188,0.173951052 29.3872233,5.50275516 30.5535979,12.7846258 C30.942134,15.208292 30.8248834,17.6731163 30.8248834,20.119303 L30.8248834,34.4151285 C30.8248834,36.1825954 29.41098,37.6161385 27.6660162,37.6161385 Z" id="Combined-Shape" fill="url(#linearGradient-1)"></path>
            <path d="M59.4118869,10.4859828 L59.4118869,25.4820508 L55.8325841,25.4820508 L55.8325841,10.4859828 L59.4118869,10.4859828 Z M75.3491112,17.9522005 C75.3491112,19.4228265 75.0386289,20.7272805 74.4176552,21.8656016 C73.7966814,23.0039226 72.9036089,23.8912342 71.738411,24.5275627 C70.573213,25.1638913 69.2022072,25.4820508 67.6253525,25.4820508 L62.0366165,25.4820508 L62.0366165,10.4859828 L67.6253525,10.4859828 C69.2161617,10.4859828 70.590656,10.7970721 71.7488768,11.41926 C72.9070975,12.0414479 73.7966814,12.9181541 74.4176552,14.0494049 C75.0386289,15.1806556 75.3491112,16.4815745 75.3491112,17.9522005 Z M67.3113786,22.2367914 C68.7068252,22.2367914 69.7917687,21.8620702 70.5662416,21.1126165 C71.3407145,20.3631629 71.7279452,19.3097014 71.7279452,17.9522005 C71.7279452,16.5946996 71.3407145,15.5412381 70.5662416,14.7917845 C69.7917687,14.0423309 68.7068252,13.6676097 67.3113786,13.6676097 L65.6159193,13.6676097 L65.6159193,22.2367914 L67.3113786,22.2367914 Z M81.1135801,13.3706578 L81.1135801,16.509863 L86.1162314,16.509863 L86.1162314,19.2460621 L81.1135801,19.2460621 L81.1135801,22.5761649 L86.7441792,22.5761649 L86.7441792,25.4820508 L77.5342773,25.4820508 L77.5342773,10.4859828 L86.7441792,10.4859828 L86.7441792,13.3706578 L81.1135801,13.3706578 Z M102.074387,25.4820508 L98.4950844,25.4820508 L92.5086481,16.2765437 L92.5086481,25.4820508 L88.9293453,25.4820508 L88.9293453,10.4859828 L92.5086481,10.4859828 L98.4950844,19.7763333 L98.4950844,10.4859828 L102.074387,10.4859828 L102.074387,25.4820508 Z M115.332367,10.4859828 L115.332367,13.3706578 L111.313501,13.3706578 L111.313501,25.4820508 L107.713267,25.4820508 L107.713267,13.3706578 L103.736263,13.3706578 L103.736263,10.4859828 L115.332367,10.4859828 Z M120.573546,10.4859828 L120.573546,25.4820508 L116.994243,25.4820508 L116.994243,10.4859828 L120.573546,10.4859828 Z M133.831526,10.4859828 L133.831526,13.3706578 L129.81266,13.3706578 L129.81266,25.4820508 L126.212426,25.4820508 L126.212426,13.3706578 L122.235422,13.3706578 L122.235422,10.4859828 L133.831526,10.4859828 Z M148.282607,10.4859828 L143.154366,20.497502 L143.154366,25.4820508 L139.554132,25.4820508 L139.554132,20.497502 L134.425891,10.4859828 L138.528484,10.4859828 L141.375181,16.5947064 L144.221878,10.4859828 L148.282607,10.4859828 Z" id="IDENTITY" fill="#333436" fill-rule="nonzero"></path>
            <path d="M59.5987828,38.0343503 C59.9648719,38.1142522 60.2619629,38.2911752 60.4900646,38.5651246 C60.7181663,38.8390741 60.8322154,39.1615305 60.8322154,39.5325037 C60.8322154,40.0233298 60.6674778,40.4171262 60.3379975,40.7139047 C60.0085173,41.0106833 59.5312005,41.1590703 58.9060329,41.1590703 L56.6926126,41.1590703 L56.6926126,35.1236522 L58.8722402,35.1236522 C59.4692472,35.1236522 59.9226277,35.2577712 60.2323954,35.5260134 C60.5421632,35.7942555 60.6970447,36.1623695 60.6970447,36.6303665 C60.6970447,37.0184615 60.5942597,37.3323572 60.3886866,37.5720629 C60.1831134,37.8117687 59.9198148,37.9658629 59.5987828,38.0343503 Z M57.461396,37.7689631 L58.7455177,37.7689631 C59.1228711,37.7689631 59.411514,37.6805016 59.611455,37.5035759 C59.811396,37.3266502 59.911365,37.0783873 59.911365,36.7587796 C59.911365,36.4505865 59.812804,36.2080308 59.6156791,36.0311051 C59.4185542,35.8541794 59.1172392,35.7657179 58.711725,35.7657179 L57.461396,35.7657179 L57.461396,37.7689631 Z M58.762414,40.5084437 C59.1679282,40.5084437 59.4819153,40.414275 59.7043849,40.2259347 C59.9268544,40.0375945 60.0380875,39.77221 60.0380875,39.4297732 C60.0380875,39.0930437 59.9240384,38.829086 59.6959367,38.6378921 C59.467835,38.4466982 59.1510318,38.3511027 58.7455177,38.3511027 L57.461396,38.3511027 L57.461396,40.5084437 L58.762414,40.5084437 Z M63.3319661,35.757157 L63.3319661,37.8203284 L65.5960753,37.8203284 L65.5960753,38.4195897 L63.3319661,38.4195897 L63.3319661,40.5255654 L65.8495204,40.5255654 L65.8495204,41.1590703 L62.5631827,41.1590703 L62.5631827,35.1236522 L65.8495204,35.1236522 L65.8495204,35.757157 L63.3319661,35.757157 Z M71.3737155,39.5924299 C71.3737155,39.8777938 71.3061309,40.1431784 71.1709595,40.3885914 C71.0357881,40.6340044 70.8302181,40.8337562 70.5542432,40.9878528 C70.2782683,41.1419493 69.9375289,41.2189964 69.5320147,41.2189964 C69.1377649,41.2189964 68.7871694,41.1462297 68.4802177,41.0006941 C68.173266,40.8551584 67.9282716,40.6554067 67.745227,40.4014327 C67.5621824,40.1474588 67.4565814,39.8578187 67.4284207,39.5325037 L68.247893,39.5325037 C68.2647895,39.7037221 68.322518,39.8706575 68.4210805,40.033315 C68.519643,40.1959725 68.6604444,40.3300915 68.843489,40.4356762 C69.0265335,40.5412609 69.2475917,40.5940524 69.5066702,40.5940524 C69.8445987,40.5940524 70.1036732,40.5027373 70.2839018,40.3201044 C70.4641303,40.1374714 70.5542432,39.9034765 70.5542432,39.6181125 C70.5542432,39.3726995 70.4908825,39.1729477 70.3641594,39.0188511 C70.2374362,38.8647546 70.0811466,38.7434767 69.895286,38.6550138 C69.7094253,38.566551 69.4559828,38.4709555 69.1349508,38.3682245 C68.7575973,38.2426643 68.4548743,38.12424 68.2267726,38.0129481 C67.9986709,37.9016561 67.804365,37.7347207 67.643849,37.5121368 C67.483333,37.2895529 67.4030761,36.9956324 67.4030761,36.6303665 C67.4030761,36.3164661 67.4777009,36.0396672 67.6269526,35.7999614 C67.7762044,35.5602557 67.9902225,35.3747719 68.2690135,35.2435044 C68.5478044,35.112237 68.8758717,35.0466043 69.2532251,35.0466043 C69.8389678,35.0466043 70.3036124,35.1907109 70.647173,35.4789286 C70.9907336,35.7671462 71.1906716,36.1338334 71.246993,36.5790012 L70.4190725,36.5790012 C70.3740153,36.3392955 70.2529261,36.1281293 70.0558012,35.9454963 C69.8586763,35.7628634 69.5911536,35.6715483 69.2532251,35.6715483 C68.9434574,35.6715483 68.6956469,35.7528758 68.5097863,35.9155333 C68.3239256,36.0781907 68.2309967,36.3079053 68.2309967,36.6046839 C68.2309967,36.8386823 68.2915413,37.0284465 68.4126323,37.1739822 C68.5337234,37.3195178 68.6843809,37.4336617 68.8646094,37.5164172 C69.0448379,37.5991728 69.2926484,37.6919147 69.6080482,37.7946457 C69.9910338,37.9202059 70.2993889,38.040057 70.5331227,38.1542025 C70.7668566,38.2683481 70.9653866,38.4409908 71.1287186,38.6721356 C71.2920507,38.9032804 71.3737155,39.2100421 71.3737155,39.5924299 Z M76.8218772,35.1236522 L76.8218772,35.757157 L75.1406915,35.757157 L75.1406915,41.1590703 L74.3719082,41.1590703 L74.3719082,35.757157 L72.6907225,35.757157 L72.6907225,35.1236522 L76.8218772,35.1236522 Z M83.8404908,35.063726 C84.567037,35.063726 85.166851,35.2449294 85.6399508,35.6073417 C86.1130506,35.969754 86.4397099,36.4648531 86.6199384,37.0926538 L85.8089142,37.0926538 C85.6568464,36.6931442 85.4118519,36.3749682 85.0739235,36.1381161 C84.735995,35.901264 84.3220389,35.7828397 83.8320427,35.7828397 C83.4434249,35.7828397 83.0956455,35.8784352 82.7886938,36.0696291 C82.4817421,36.2608229 82.2395637,36.5347682 82.0621513,36.8914732 C81.8847388,37.2481782 81.796034,37.6662302 81.796034,38.1456417 C81.796034,38.6193459 81.8847388,39.0331175 82.0621513,39.3869688 C82.2395637,39.7408202 82.4817421,40.0133387 82.7886938,40.2045325 C83.0956455,40.3957264 83.4434249,40.4913219 83.8320427,40.4913219 C84.3220389,40.4913219 84.735995,40.3728976 85.0739235,40.1360455 C85.4118519,39.8991934 85.6568464,39.5810173 85.8089142,39.1815078 L86.6199384,39.1815078 C86.4397099,39.8093085 86.1130506,40.3044076 85.6399508,40.6668199 C85.166851,41.0292321 84.567037,41.2104356 83.8404908,41.2104356 C83.2829089,41.2104356 82.790104,41.0805969 82.3620613,40.8209157 C81.9340186,40.5612344 81.6003192,40.1988276 81.3609533,39.7336843 C81.1215873,39.268541 81.0019061,38.7391988 81.0019061,38.1456417 C81.0019061,37.5463773 81.1215873,37.0127547 81.3609533,36.5447577 C81.6003192,36.0767608 81.9340186,35.7129272 82.3620613,35.4532459 C82.790104,35.1935647 83.2829089,35.063726 83.8404908,35.063726 Z M91.1472496,35.0466043 C91.6991994,35.0466043 92.1962284,35.1778697 92.6383514,35.4404046 C93.0804745,35.7029395 93.4282539,36.0696267 93.6817003,36.5404773 C93.9351466,37.0113279 94.0618679,37.5435237 94.0618679,38.1370808 C94.0618679,38.7306379 93.9351466,39.2628337 93.6817003,39.7336843 C93.4282539,40.2045349 93.0804745,40.5712221 92.6383514,40.833757 C92.1962284,41.0962919 91.6991994,41.2275573 91.1472496,41.2275573 C90.5952998,41.2275573 90.0954548,41.0962919 89.6476996,40.833757 C89.1999444,40.5712221 88.8493489,40.2045349 88.5959026,39.7336843 C88.3424563,39.2628337 88.215735,38.7306379 88.215735,38.1370808 C88.215735,37.5435237 88.3424563,37.0113279 88.5959026,36.5404773 C88.8493489,36.0696267 89.1999444,35.7029395 89.6476996,35.4404046 C90.0954548,35.1778697 90.5952998,35.0466043 91.1472496,35.0466043 Z M91.1472496,35.7742788 C90.7361033,35.7742788 90.3686117,35.8698743 90.0447636,36.0610682 C89.7209155,36.252262 89.4674729,36.5262074 89.2844284,36.8829123 C89.1013838,37.2396173 89.0098629,37.6576693 89.0098629,38.1370808 C89.0098629,38.610785 89.1013838,39.0274102 89.2844284,39.3869688 C89.4674729,39.7465274 89.7209155,40.0218995 90.0447636,40.2130934 C90.3686117,40.4042873 90.7361033,40.4998828 91.1472496,40.4998828 C91.5527637,40.4998828 91.9174394,40.4028605 92.2412875,40.208813 C92.5651356,40.0147655 92.8185781,39.7393934 93.0016227,39.3826884 C93.1846673,39.0259834 93.2761882,38.610785 93.2761882,38.1370808 C93.2761882,37.6576693 93.1846673,37.2396173 93.0016227,36.8829123 C92.8185781,36.5262074 92.5651356,36.252262 92.2412875,36.0610682 C91.9174394,35.8698743 91.5527637,35.7742788 91.1472496,35.7742788 Z M101.833276,35.2263827 L101.833276,41.1590703 L101.064493,41.1590703 L101.064493,36.4249054 L99.1974472,41.1590703 L98.5131456,41.1590703 L96.6376521,36.4420272 L96.6376521,41.1590703 L95.8688687,41.1590703 L95.8688687,35.2263827 L96.7897191,35.2263827 L98.8679687,40.208813 L100.912426,35.2263827 L101.833276,35.2263827 Z M104.603368,38.7277813 L104.603368,41.1590703 L103.834585,41.1590703 L103.834585,35.1236522 L105.726974,35.1236522 C106.408464,35.1236522 106.918165,35.2848804 107.256093,35.6073417 C107.594021,35.929803 107.762983,36.3706838 107.762983,36.9299972 C107.762983,37.4950179 107.588389,37.9358986 107.239197,38.2526526 C106.890004,38.5694067 106.385935,38.7277813 105.726974,38.7277813 L104.603368,38.7277813 Z M105.659389,38.0771547 C106.126857,38.0771547 106.463372,37.9772788 106.668945,37.777524 C106.874518,37.5777692 106.977303,37.2952631 106.977303,36.9299972 C106.977303,36.5533167 106.874518,36.2665302 106.668945,36.0696291 C106.463372,35.8727279 106.126857,35.7742788 105.659389,35.7742788 L104.603368,35.7742788 L104.603368,38.0771547 L105.659389,38.0771547 Z M112.915459,39.7636474 L110.296527,39.7636474 L109.798085,41.1590703 L108.970164,41.1590703 L111.175136,35.2349436 L112.045297,35.2349436 L114.241821,41.1590703 L113.413901,41.1590703 L112.915459,39.7636474 Z M112.695806,39.1558251 L111.605993,36.108153 L110.516179,39.1558251 L112.695806,39.1558251 Z M120.416526,41.1590703 L119.647742,41.1590703 L116.555712,36.3906619 L116.555712,41.1590703 L115.786929,41.1590703 L115.786929,35.1236522 L116.555712,35.1236522 L119.647742,39.9006214 L119.647742,35.1236522 L120.416526,35.1236522 L120.416526,41.1590703 Z M126.650367,35.1236522 L124.69884,38.8733162 L124.69884,41.1590703 L123.921608,41.1590703 L123.921608,38.8733162 L121.961633,35.1236522 L122.857139,35.1236522 L124.318672,38.0429112 L125.771757,35.1236522 L126.650367,35.1236522 Z" id="BESTCOMPANY" stroke="#303334" stroke-width="0.5" fill="#333436" fill-rule="nonzero"></path>
        </g>
    </g>
</svg>