<?xml version="1.0" encoding="UTF-8"?>
<svg width="45px" height="45px" viewBox="0 0 45 45" version="1.1" xmlns="http://www.w3.org/2000/svg" xmlns:xlink="http://www.w3.org/1999/xlink">
    <!-- Generator: Sketch 55.2 (78181) - https://sketchapp.com -->
    <title>icon_service_4</title>
    <desc>Created with Sketch.</desc>
    <g id="icon_service_4" stroke="none" stroke-width="1" fill="none" fill-rule="evenodd">
        <path d="M11.6783636,31.4940762 L8.48074255,37.9117411 C8.36500314,38.1440183 8.37741679,38.4202596 8.51360237,38.6415458 C8.64978785,38.8624656 8.89039444,38.9972889 9.14925641,38.9972889 L13.5192412,38.9972889 C13.8887311,36.4147623 16.093622,34.4975594 18.6935603,34.4975594 C21.2934986,34.4975594 23.4983895,36.4147623 23.8678794,38.9972889 L28.4740894,38.9972889 C28.8662161,36.2707796 31.2912674,34.3114447 34.0292168,34.5089169 C36.7675313,34.7060228 38.8888122,36.9928906 38.8888122,39.7476102 C38.8888122,42.5023298 36.7675313,44.7891976 34.0292168,44.9863036 C31.2912674,45.1837758 28.8662161,43.2244408 28.4740894,40.4979315 L23.8678794,40.4979315 C23.4983895,43.0804582 21.2934986,44.997661 18.6935603,44.997661 C16.093622,44.997661 13.8887311,43.0804582 13.5192412,40.4979315 L9.14925641,40.4979315 C8.37194014,40.4979315 7.64975537,40.0938278 7.24119883,39.4303356 C6.8322772,38.7664773 6.79540125,37.9377532 7.14334972,37.2401889 L10.4384549,30.6261509 L7.3419688,11.985723 L6.20027428,5.10973189 C6.14039638,4.74812683 5.82859368,4.48287654 5.46312,4.48251019 L-2.13162821e-14,4.48251019 L-2.13162821e-14,2.98186764 L5.46312,2.98186764 C6.5606364,2.97930304 7.4978702,3.77615305 7.67567811,4.86279993 L8.85862997,11.985723 L16.140721,11.985723 L28.0852488,1.98951966e-13 L40.0297767,11.985723 L45,11.985723 L41.7592961,31.4940762 L11.6783636,31.4940762 Z M28.0852488,2.12200236 L18.25543,11.985723 L37.9150677,11.985723 L28.0852488,2.12200236 Z M43.2336045,13.4863655 L9.10836425,13.4863655 L11.8495996,29.9934336 L40.4923692,29.9934336 L43.2336045,13.4863655 Z M33.6484085,35.9960038 C31.5844496,35.9985684 29.9122522,37.6768994 29.9096965,39.7476102 C29.9096965,41.8194202 31.5837194,43.4992166 33.6484085,43.4992166 C35.7130977,43.4992166 37.3871206,41.8194202 37.3871206,39.7476102 C37.3871206,37.6758002 35.7130977,35.9960038 33.6484085,35.9960038 Z M18.6935603,35.9960038 C16.6296014,35.9985684 14.957404,37.6768994 14.9548482,39.7476102 C14.9548482,41.8194202 16.6288711,43.4992166 18.6935603,43.4992166 C20.7582494,43.4992166 22.4322723,41.8194202 22.4322723,39.7476102 C22.4322723,37.6758002 20.7582494,35.9960038 18.6935603,35.9960038 Z M13.4593634,16.4876506 L38.8826054,16.4876506 L38.8826054,17.9882932 L13.4593634,17.9882932 L13.4593634,16.4876506 Z M14.9548482,20.9895783 L37.3871206,20.9895783 L37.3871206,22.4902208 L14.9548482,22.4902208 L14.9548482,20.9895783 Z M16.4503331,25.491506 L35.8916357,25.491506 L35.8916357,26.9921485 L16.4503331,26.9921485 L16.4503331,25.491506 Z M18.6935603,41.9985741 C17.4547468,41.9985741 16.4503331,40.9906962 16.4503331,39.7476102 C16.4503331,38.5045243 17.4547468,37.4966464 18.6935603,37.4966464 C19.9323737,37.4966464 20.9367875,38.5045243 20.9367875,39.7476102 C20.9367875,40.9906962 19.9323737,41.9985741 18.6935603,41.9985741 Z M18.6935603,38.9972889 C18.2806224,38.9972889 17.9458179,39.3332482 17.9458179,39.7476102 C17.9458179,40.1619722 18.2806224,40.4979315 18.6935603,40.4979315 C19.1064981,40.4979315 19.4413027,40.1619722 19.4413027,39.7476102 C19.4413027,39.3332482 19.1064981,38.9972889 18.6935603,38.9972889 Z M33.6484085,41.9985741 C32.4095951,41.9985741 31.4051813,40.9906962 31.4051813,39.7476102 C31.4051813,38.5045243 32.4095951,37.4966464 33.6484085,37.4966464 C34.887222,37.4966464 35.8916357,38.5045243 35.8916357,39.7476102 C35.8916357,40.9906962 34.887222,41.9985741 33.6484085,41.9985741 Z M33.6484085,38.9972889 C33.2354707,38.9972889 32.9006661,39.3332482 32.9006661,39.7476102 C32.9006661,40.1619722 33.2354707,40.4979315 33.6484085,40.4979315 C34.0613464,40.4979315 34.3961509,40.1619722 34.3961509,39.7476102 C34.3961509,39.3332482 34.0613464,38.9972889 33.6484085,38.9972889 Z" fill="#162650" fill-rule="nonzero"></path>
    </g>
</svg>