<?xml version="1.0" encoding="UTF-8"?>
<svg width="45px" height="45px" viewBox="0 0 45 45" version="1.1" xmlns="http://www.w3.org/2000/svg" xmlns:xlink="http://www.w3.org/1999/xlink">
    <!-- Generator: Sketch 55.2 (78181) - https://sketchapp.com -->
    <title>icon_service_3</title>
    <desc>Created with Sketch.</desc>
    <g id="icon_service_3" stroke="none" stroke-width="1" fill="none" fill-rule="evenodd">
        <path d="M35.2608612,37.4278142 C35.6690477,37.4278142 36,37.7629341 36,38.1762609 L36,44.1638341 C36,44.5771607 35.6690477,44.9122807 35.2608612,44.9122807 L13.0866957,44.9122807 C12.6785092,44.9122807 12.3475569,44.5771607 12.3475569,44.1638341 L12.3475569,38.1762609 C12.3475569,37.7629341 12.6785092,37.4278142 13.0866957,37.4278142 L14.5649734,37.4278142 L14.5649734,36.6044497 C14.5649734,35.7858362 14.3765797,34.9785518 14.0145893,34.246916 L8.15741921,22.4362232 C7.80553423,21.7265145 8.06213959,20.8618539 8.74208958,20.4664344 L9.42203958,20.0702839 C10.2701725,19.573634 11.2781875,19.4384167 12.2248483,19.6949642 C13.1711481,19.9518773 13.9777767,20.5789938 14.4668065,21.438538 L16.0432511,24.2079367 L16.0432511,14.3440092 C12.835504,12.9264192 11.0493721,9.42465359 11.7643301,5.95541337 C12.4796491,2.48580762 15.4997242,7.46069873e-14 18.9998065,7.46069873e-14 C22.4998888,7.46069873e-14 25.5203249,2.48580762 26.2352829,5.95541337 C26.9506019,9.42465359 25.16447,12.9264192 21.9563619,14.3440092 L21.9563619,15.376047 C22.7185988,14.930195 23.6374697,14.8512573 24.4628655,15.161161 C25.2882612,15.4706992 25.9346468,16.1365536 26.2258993,16.9778251 C26.9856099,16.4629026 27.9380452,16.3324361 28.8056671,16.625529 C29.6729281,16.9182565 30.3579309,17.6009216 30.6607324,18.4747184 C31.5673324,17.8603929 32.7345077,17.8019205 33.6970484,18.3223248 C34.6592281,18.8423637 35.2605003,19.8572251 35.2608612,20.961988 L35.2608612,30.774752 C35.2597784,31.8203116 35.019414,32.851253 34.5588958,33.7871767 L34.3289977,34.2527632 C33.9702554,34.9807445 33.7833053,35.7829126 33.7825835,36.5960444 L33.7825835,37.4278142 L35.2608612,37.4278142 Z M21.0894618,5.37397847 C21.6459813,5.93385165 21.9581664,6.69545459 21.9563619,7.48994829 L21.9563619,9.72688281 C23.1000783,8.18321159 22.8965263,6.011693 21.4868211,4.71324042 C20.0767549,3.41478783 17.9228581,3.41478783 16.5131529,4.71324042 C15.1034476,6.011693 14.8998957,8.18321159 16.0432511,9.72688281 L16.0432511,7.61712575 C16.0136567,6.0131549 17.2093437,4.65696078 18.7861492,4.50493256 C19.6422221,4.44097835 20.4834978,4.75819109 21.0894618,5.37397847 Z M13.0866768,7.48994829 C13.0921094,9.62345974 14.2185021,11.5932486 16.0432511,12.6600042 L16.0432511,11.7723202 C14.1881858,10.4643658 13.3862491,8.08819395 14.0633118,5.90388459 C14.7403746,3.71994066 16.739081,2.23364547 18.9998065,2.23364547 C21.260532,2.23364547 23.2595994,3.71994066 23.9363013,5.90388459 C24.613364,8.08819395 23.811788,10.4643658 21.9563619,11.7723202 L21.9563619,12.6600042 C24.4433765,11.2062344 25.5390921,8.15360997 24.554536,5.4222182 C23.5703409,2.69082652 20.7902694,1.07004482 17.9632798,1.57985103 C15.1362902,2.08965724 13.0794776,4.58204296 13.0866768,7.48994829 Z M15.3351504,33.5785033 C15.8003603,34.5177162 16.0425293,35.553774 16.0432511,36.6044497 L16.0432511,37.4278142 L32.3043058,37.4278142 L32.3043058,36.5960444 C32.3057494,35.5504849 32.5461139,34.5195435 33.0066321,33.5836197 L33.2365302,33.1180333 C33.5949115,32.3904174 33.7818617,31.5882493 33.7825835,30.774752 L33.7825835,20.961988 C33.7825835,20.134969 33.1206789,19.4650947 32.3043058,19.4650947 C31.4879327,19.4650947 30.8260281,20.134969 30.8260281,20.961988 L30.8260281,23.2073279 C30.8260281,23.6206546 30.4950758,23.9557746 30.0868892,23.9557746 C29.6787027,23.9557746 29.3477504,23.6206546 29.3477504,23.2073279 L29.3477504,19.4650947 C29.3477504,18.6380757 28.6858458,17.9682014 27.8694727,17.9682014 C27.0530996,17.9682014 26.391195,18.6380757 26.391195,19.4650947 L26.391195,23.2073279 C26.391195,23.6206546 26.0602427,23.9557746 25.6520561,23.9557746 C25.2438696,23.9557746 24.9129173,23.6206546 24.9129173,23.2073279 L24.9129173,17.9682014 C24.9129173,17.1411824 24.2510127,16.4713081 23.4346396,16.4713081 C22.6182665,16.4713081 21.9563619,17.1411824 21.9563619,17.9682014 L21.9563619,23.2073279 C21.9563619,23.6206546 21.6254096,23.9557746 21.217223,23.9557746 C20.8090365,23.9557746 20.4780842,23.6206546 20.4780842,23.2073279 L20.4780842,7.48994829 C20.4791669,7.09270144 20.322894,6.71190002 20.0442733,6.43232881 C19.7432762,6.12169426 19.3217361,5.96272242 18.8933388,5.99817128 C18.0932065,6.10049797 17.5002352,6.8007049 17.5215288,7.61712575 L17.5215288,27.0018209 C17.5215288,27.3405952 17.2970443,27.6369772 16.9736711,27.7246858 C16.6506587,27.8123944 16.309601,27.6695025 16.1425007,27.3760442 L13.1859453,22.1891773 C12.8925275,21.6738894 12.4089112,21.2978388 11.8415644,21.1443487 C11.2742176,20.9904932 10.6696973,21.0716237 10.1611784,21.3698329 L9.47834117,21.7670797 L15.3351504,33.5785033 Z M34.5217223,43.4153874 L34.5217223,38.9247075 L13.8258346,38.9247075 L13.8258346,43.4153874 L34.5217223,43.4153874 Z M32.3043058,41.9184941 L30.8260281,41.9184941 C30.4178415,41.9184941 30.0868892,41.5833741 30.0868892,41.1700475 C30.0868892,40.7567207 30.4178415,40.4216008 30.8260281,40.4216008 L32.3043058,40.4216008 C32.7124923,40.4216008 33.0434446,40.7567207 33.0434446,41.1700475 C33.0434446,41.5833741 32.7124923,41.9184941 32.3043058,41.9184941 Z" fill="#162650" fill-rule="nonzero"></path>
    </g>
</svg>