<?xml version="1.0" encoding="UTF-8"?>
<svg width="45px" height="45px" viewBox="0 0 45 45" version="1.1" xmlns="http://www.w3.org/2000/svg" xmlns:xlink="http://www.w3.org/1999/xlink">
    <!-- Generator: Sketch 55.2 (78181) - https://sketchapp.com -->
    <title>icon_service_5</title>
    <desc>Created with Sketch.</desc>
    <g id="icon_service_5" stroke="none" stroke-width="1" fill="none" fill-rule="evenodd">
        <path d="M45,18.8046609 C44.9984063,16.8093 43.8299063,14.9939062 42,14.1436398 L42,6.21990389 C42.0001875,4.99407383 40.9930313,4 39.750375,4 C39.4449375,4 39.1426875,4.06122225 38.862,4.18015227 L23.85,11.1021386 C22.3573125,11.7876971 20.7310313,12.1439323 19.0845,12.1460593 L15.75,12.1460593 C15.3358125,12.1460593 15,12.4773247 15,12.8859039 L5.25,12.8859039 C2.35209375,12.8896032 0.00375,15.2061492 0,18.0648163 L0,19.5445055 C0.00375,22.4031727 2.35209375,24.7197187 5.25,24.7234179 L6.6,24.7234179 L6.13875,27.2255724 C5.54025,30.46304 5.54025,33.7806882 6.13875,37.0181558 L6.537,39.1770224 C6.73134375,40.2329657 7.66378125,41.000462 8.75175,41 L13.4205,41 C14.6631562,41 15.6704062,40.0061108 15.6703125,38.7802808 C15.6703125,38.4636273 15.6015937,38.150673 15.46875,37.8623185 L15.0135,36.8731463 C13.554,33.7186338 13.1113125,30.1982681 13.74525,26.7875844 L14.1255,24.7234179 L15,24.7234179 C15,25.1319971 15.3358125,25.4632625 15.75,25.4632625 L19.0845,25.4632625 C20.73,25.4657595 22.35525,25.8219947 23.847,26.5071833 L38.89425,33.4424868 C40.0435312,33.9086814 41.3582812,33.3675775 41.830875,32.2339506 C41.9425312,31.9660343 42,31.6791596 42,31.3894179 L42,23.465682 C43.8299063,22.6154156 44.9984063,20.8000219 45,18.8046609 L45,18.8046609 Z M13.65,37.4857376 L14.106,38.4749099 C14.2770938,38.8470517 14.1099375,39.2855022 13.7326875,39.4542792 C13.634625,39.498115 13.528125,39.5206803 13.4205,39.5203148 L8.75175,39.5203148 C8.3893125,39.5203148 8.078625,39.264694 8.01375,38.9128979 L7.6155,36.7540313 C7.04934375,33.691167 7.04934375,30.5525612 7.6155,27.4896969 L8.12625,24.7234179 L12.6,24.7234179 L12.2685,26.5234599 C11.5802813,30.2309137 12.0625313,34.0573901 13.65,37.4857376 L13.65,37.4857376 Z M5.25,23.2437286 C3.18,23.2413242 1.5024375,21.5864767 1.5,19.5445055 L1.5,18.0648163 C1.5024375,16.0228451 3.18,14.3679977 5.25,14.3655932 L15,14.3655932 L15,23.2437286 L5.25,23.2437286 Z M40.5000299,31.3894179 C40.50225,31.636896 40.3771875,31.8686523 40.16775,32.0049687 C39.9715312,32.1386956 39.7215938,32.1695841 39.498,32.0878313 L24.483,25.1673247 C22.7915625,24.3904878 20.9488125,23.9865327 19.083,23.9835733 L16.5,23.9835733 L16.5,13.6257486 L19.0845,13.6257486 C20.9503125,13.6227892 22.7930625,13.218834 24.4845,12.4419972 L39.46575,5.53480777 C39.8490938,5.37990281 40.2870938,5.5608873 40.4440313,5.93904038 C40.4810625,6.02819166 40.5000299,6.12353913 40.5000299,6.21990389 L40.5000299,31.3894179 Z M42,21.7640394 L42,15.8452824 C43.6568437,17.0711125 43.9926562,19.3897855 42.75,21.0241948 C42.5368125,21.3045959 42.28425,21.5537386 42,21.7640394 Z" id="Shape" fill="#162650" fill-rule="nonzero"></path>
    </g>
</svg>