<?xml version="1.0" encoding="UTF-8"?>
<svg width="45px" height="45px" viewBox="0 0 45 45" version="1.1" xmlns="http://www.w3.org/2000/svg" xmlns:xlink="http://www.w3.org/1999/xlink">
    <!-- Generator: Sketch 55.2 (78181) - https://sketchapp.com -->
    <title>icon_service_2</title>
    <desc>Created with Sketch.</desc>
    <g id="icon_service_2" stroke="none" stroke-width="1" fill="none" fill-rule="evenodd">
        <path d="M42.5693888,4.57050186 L40.4321988,2.43360075 C37.1895402,-0.811200249 31.9291619,-0.811200249 28.6865032,2.43360075 L22.2749331,8.8443041 C19.4751257,11.68945 19.0706231,16.114782 21.3084778,19.4204162 L19.4205529,21.3080859 C16.1203716,19.0447256 11.6760045,19.4506483 8.8404298,22.2744106 L2.42922842,28.6851139 C-0.809742807,31.9299149 -0.809742807,37.1844205 2.42922842,40.4292215 L4.56641845,42.5661228 C7.80907708,45.8112924 13.0694554,45.8112924 16.3121139,42.5661228 L22.7236841,36.1557881 C25.5234915,33.3102734 25.9279942,28.8853102 23.6901394,25.5793073 L25.5780644,23.6916376 C28.8782456,25.9546292 33.3215065,25.5498125 36.1581875,22.727525 L42.5693888,16.3171903 C45.8102037,13.071652 45.8102037,7.81567162 42.5693888,4.57050186 Z M26.5530006,13.1125761 L32.9560898,6.70261009 C33.8543291,5.84873449 35.264373,5.84873449 36.1626123,6.70261009 L38.2998023,8.83951121 C39.1829235,9.72546247 39.1829235,11.1589117 38.2998023,12.0448629 L31.8882322,18.4485612 C31.4350565,18.9020443 30.8093127,19.1402152 30.1688193,19.1033467 L30.3793672,18.8931959 C31.264332,18.0087195 31.264332,16.5741642 30.3793672,15.6896877 L29.3118784,14.6219745 C28.4269136,13.7371293 26.9921644,13.7371293 26.1075683,14.6219745 L25.8977579,14.8324939 C25.8608843,14.1920872 26.0994561,13.5664279 26.5530006,13.1125761 Z M27.1754259,15.6896877 C27.4704141,15.3947393 27.9482951,15.3947393 28.2432834,15.6896877 L29.3118784,16.7581383 C29.6064979,17.0527179 29.6064979,17.5309031 29.3118784,17.8254827 L17.5636017,29.5714338 C17.2645573,29.8564277 16.7947886,29.8564277 16.4957442,29.5714338 L15.4278866,28.5037206 C15.1332671,28.2091409 15.1332671,27.7309559 15.4278866,27.4360075 L27.1754259,15.6896877 Z M18.4456167,31.8897282 L12.0425275,38.2993255 C11.1442882,39.1532011 9.73424427,39.1532011 8.83600498,38.2993255 L6.69881495,36.1624244 C5.8160625,35.2764731 5.8160625,33.8433927 6.69881495,32.9570727 L13.110385,26.5533744 C13.5642983,26.1009973 14.1893046,25.8628264 14.8290604,25.8989577 L14.3600291,26.3686629 C13.4758018,27.2531395 13.4758018,28.6869573 14.3600291,29.5714338 L15.4278866,30.639147 C16.3124827,31.5236235 17.7464945,31.5236235 18.6314593,30.639147 L19.1012281,30.1694417 C19.1377329,30.8102171 18.8991611,31.4358763 18.4456167,31.8897282 Z M21.6558266,35.0902869 L15.2442564,41.5009903 C12.5904682,44.1536824 8.28806422,44.1536824 5.634276,41.5009903 L3.49708597,39.3640892 C0.848091282,36.7084476 0.848091282,32.4103121 3.49708597,29.7550392 L9.90828735,23.3443359 C12.1527793,21.1086271 15.6435968,20.7178204 18.3268838,22.4012384 L16.0805482,24.6461643 C14.6870974,24.0949795 13.0993229,24.424953 12.0410526,25.4856612 L5.62948246,31.8886221 C4.15638475,33.3644702 4.15638475,35.7542895 5.62948246,37.2301375 L7.76667249,39.3670387 C9.24272008,40.8403059 11.6328625,40.8403059 13.1089101,39.3670387 L19.5127367,32.9570727 C20.5728508,31.899314 20.9036065,30.3124916 20.3538221,28.9192292 L22.5975766,26.6750406 C24.2587293,29.3623891 23.8700823,32.8365126 21.6558266,35.0902869 Z M41.5015313,15.2472651 L35.0903299,21.6575998 C32.8458379,23.8933086 29.3553892,24.2844839 26.6717333,22.6006972 L28.9184378,20.3542965 C30.3107825,20.9095368 31.899663,20.5795634 32.9560898,19.5162744 L39.3676599,13.1133134 C40.8407576,11.6374654 40.8407576,9.24764607 39.3676599,7.77179802 L37.2304698,5.63526557 C35.7544222,4.16162968 33.3642798,4.16162968 31.8882322,5.63526557 L25.4844055,12.0448629 C24.4246602,13.1033589 24.0946421,14.6898126 24.6447952,16.0830751 L22.4010407,18.3283697 C20.7387818,15.6410212 21.1277976,12.1657918 23.3427907,9.91164862 L29.7543608,3.50131394 C32.4081491,0.84825313 36.7105529,0.84825313 39.36471,3.50131394 L41.5015313,5.63821505 C44.1508947,8.29348802 44.1508947,12.5916234 41.5015313,15.2472651 Z" fill="#162650" fill-rule="nonzero"></path>
    </g>
</svg>