<?xml version="1.0" encoding="UTF-8"?>
<svg width="45px" height="45px" viewBox="0 0 45 45" version="1.1" xmlns="http://www.w3.org/2000/svg" xmlns:xlink="http://www.w3.org/1999/xlink">
    <!-- Generator: Sketch 55.2 (78181) - https://sketchapp.com -->
    <title>icon_service_1</title>
    <desc>Created with Sketch.</desc>
    <g id="icon_service_1" stroke="none" stroke-width="1" fill="none" fill-rule="evenodd">
        <path d="M12.6956079,27.0032982 C12.3870053,27.0032982 12.1097049,26.8167677 11.9948075,26.5320249 L9.67881518,20.7679059 L7.36245463,26.5320249 C7.24350636,26.8284946 6.9488977,27.0175903 6.62814249,27.0032982 C6.30738729,26.9890061 6.03119172,26.7742579 5.93949479,26.4678936 L3.67690027,18.962702 C3.55721543,18.5658211 3.78369587,18.1473187 4.1828906,18.0285842 C4.5817171,17.9094833 5.00227092,18.1348589 5.12195566,18.5321063 L6.76366248,23.9785007 L8.9780148,18.4683415 C9.09217571,18.1828657 9.36984432,17.9956024 9.67881518,17.9956024 C9.9874178,17.9956024 10.2650864,18.1828657 10.3792473,18.4683415 L12.5935996,23.9785007 L14.2356747,18.5321063 C14.3549911,18.1348589 14.775545,17.9094833 15.1743715,18.0285842 C15.5735663,18.1473187 15.8000467,18.5658211 15.6807301,18.962702 L13.4181356,26.4678936 C13.3260704,26.7738914 13.0491383,26.9882731 12.7287513,27.0025652 L12.6956079,27.0032982 Z M25.5169768,27.0032982 C25.2083742,27.0032982 24.9310738,26.8167677 24.8161764,26.5320249 L22.5001841,20.7679059 L20.1838236,26.5320249 C20.0648753,26.8284946 19.7702666,27.0175903 19.4495114,27.0032982 C19.1287562,26.9890061 18.8525607,26.7742579 18.7608637,26.4678936 L16.4982692,18.962702 C16.3785844,18.5658211 16.6050648,18.1473187 17.0042595,18.0285842 C17.403086,17.9094833 17.8236399,18.1348589 17.9433246,18.5321063 L19.5850314,23.9785007 L21.7993837,18.4683415 C21.9135447,18.1828657 22.1912133,17.9956024 22.5001841,17.9956024 C22.8087867,17.9956024 23.0864554,18.1828657 23.2006163,18.4683415 L25.4149686,23.9785007 L27.0570436,18.5321063 C27.1763601,18.1348589 27.596914,17.9094833 27.9957405,18.0285842 C28.3949352,18.1473187 28.6214156,18.5658211 28.502099,18.962702 L26.2395045,26.4678936 C26.1474394,26.7738914 25.8712437,26.9882731 25.5508568,27.0025652 L25.5169768,27.0032982 Z M39.0925439,27.0032982 C38.7839413,27.0032982 38.5066409,26.8167677 38.3917436,26.5320249 L36.0757512,20.7679059 L33.7593907,26.5320249 C33.6404424,26.8284946 33.3458338,27.0175903 33.0250786,27.0032982 C32.7043234,26.9890061 32.4281278,26.7742579 32.3364309,26.4678936 L30.0738363,18.962702 C29.9541515,18.5658211 30.1806319,18.1473187 30.5798267,18.0285842 C30.9786532,17.9094833 31.399207,18.1348589 31.5188917,18.5321063 L33.1605985,23.9785007 L35.3749509,18.4683415 C35.4891118,18.1828657 35.7667804,17.9956024 36.0757512,17.9956024 C36.3843539,17.9956024 36.6620225,18.1828657 36.7761834,18.4683415 L38.9905357,23.9785007 L40.6326108,18.5321063 C40.7519272,18.1348589 41.1724811,17.9094833 41.5713076,18.0285842 C41.9705023,18.1473187 42.1969828,18.5658211 42.0776662,18.962702 L39.8150716,26.4678936 C39.7230065,26.7738914 39.4468108,26.9882731 39.1264239,27.0025652 L39.0925439,27.0032982 Z M44.8867598,19.2511096 C45.0377467,21.4143491 45.0377467,23.5856509 44.8867598,25.7488904 C43.2590469,36.8051223 33.728825,45 22.5001841,45 C11.271175,45 1.74132137,36.8051223 0.113240183,25.7488904 C-0.0377467277,23.5856509 -0.0377467277,21.4143491 0.113240183,19.2511096 C1.74132137,8.19524413 11.271175,-2.48689958e-14 22.5001841,-2.48689958e-14 C33.728825,-2.48689958e-14 43.2590469,8.19524413 44.8867598,19.2511096 Z M43.3982495,25.4894336 C43.5400299,23.4991653 43.5400299,21.5012012 43.3982495,19.5109328 C42.733907,17.2802638 40.6760655,15.7491754 38.3383458,15.7455108 L6.66202249,15.7455108 C4.32393452,15.748809 2.26609302,17.2802638 1.60211873,19.5109328 C1.46033833,21.5012012 1.46033833,23.4991653 1.60211873,25.4894336 C2.26609302,27.7201025 4.32393452,29.251191 6.66202249,29.2548557 L38.3383458,29.2548557 C40.6760655,29.251191 42.733907,27.7197361 43.3982495,25.4894336 Z M23.2543823,30.755894 L23.2543823,34.5279124 C25.981722,34.5707887 28.6965407,34.9050043 31.3520696,35.5246956 C32.0013135,33.9826133 32.5139325,32.3866607 32.8840346,30.755894 L23.2543823,30.755894 Z M21.745986,14.2444725 L21.745986,10.4698888 C19.0186462,10.426646 16.3038275,10.0931634 13.6479303,9.47567081 C12.9986866,11.0177531 12.4860675,12.6133393 12.1163336,14.2444725 L21.745986,14.2444725 Z M42.4492414,15.6374038 C41.3647132,12.5378476 39.5683369,9.73329532 37.2022611,7.44692371 C35.7903491,8.11828655 34.3239345,8.67054847 32.8188525,9.09821249 C33.5097098,10.761961 34.0488437,12.4843438 34.4299936,14.2444725 L38.3383458,14.2444725 C39.825383,14.244839 41.2708067,14.7344355 42.4492414,15.6374038 Z M35.9822129,6.35925727 C33.6765319,4.44081604 30.98565,3.03505838 28.0892787,2.23616601 C29.8108981,3.77275136 31.2036605,5.63915469 32.1847073,7.72323794 C33.4828268,7.36300338 34.7522219,6.90712162 35.9822129,6.35925727 Z M23.2543823,1.53951706 L23.2543823,8.96958345 C25.7592924,8.92963885 28.2538913,8.63500144 30.6987749,8.09080179 C28.7657739,4.30815587 26.1142959,1.90268333 23.2543823,1.53951706 Z M31.3520696,9.47567081 C28.6961725,10.0931634 25.9813537,10.426646 23.2543823,10.4698888 L23.2543823,14.2444725 L32.8840346,14.2444725 C32.5139325,12.6133393 32.0013135,11.0177531 31.3520696,9.47567081 Z M21.745986,1.53951706 C18.8860723,1.90268333 16.2342261,4.30815587 14.3012251,8.09006881 C16.7461087,8.63463491 19.2407075,8.92927241 21.745986,8.96958345 L21.745986,1.53951706 Z M16.9114578,2.23616601 C14.0150864,3.03395906 11.3238363,4.43898365 9.01815531,6.35705853 C10.2485147,6.90492279 11.5179097,7.36080464 12.8160292,7.72177208 C13.797076,5.63768883 15.1898384,3.77201838 16.9114578,2.23616601 Z M7.79773888,7.44985542 C5.43239956,9.73549416 3.63565506,12.538947 2.55075862,15.6374038 C3.72919326,14.7344355 5.17461699,14.244839 6.66202249,14.2444725 L10.5692698,14.2444725 C10.9515246,12.4854433 11.4910267,10.7641597 12.181884,9.1011442 C10.6768021,8.67384663 9.21001917,8.1215847 7.79773888,7.44985542 Z M2.55075862,29.3651615 L2.55075862,29.3629626 C3.63528673,32.4621524 5.43203133,35.2667047 7.79773888,37.5530762 C9.21001917,36.8817134 10.6768021,36.3294515 12.181884,35.902154 C11.4910267,34.238039 10.9511564,32.5156562 10.5692698,30.755894 L6.66202249,30.755894 C5.17498522,30.755894 3.7295615,30.2670304 2.55075862,29.3651615 Z M9.01815531,38.6429415 L9.01815531,38.6407426 C11.323468,40.5595505 14.0150864,41.965308 16.9114578,42.7642005 C15.1898384,41.2279816 13.797076,39.3623112 12.8160292,37.2785944 C11.5179097,37.6391954 10.2485147,38.0954436 9.01815531,38.6429415 Z M21.745986,43.45975 L21.745986,36.0289507 C19.2407075,36.0692617 16.7461087,36.3642657 14.3012251,36.9091982 C16.2342261,40.6918441 18.8860723,43.0973167 21.745986,43.45975 Z M13.6479303,35.5246956 C16.3038275,34.9050043 19.0186462,34.5707887 21.745986,34.5279124 L21.745986,30.755894 L12.1163336,30.755894 C12.4860675,32.3866607 12.9986866,33.9826133 13.6479303,35.5246956 Z M23.2543823,43.45975 C26.1150324,43.0973167 28.7657739,40.6918441 30.6987749,36.9099312 C28.2538913,36.3649986 25.7596607,36.0699947 23.2543823,36.0296836 L23.2543823,43.45975 Z M28.0892787,42.7642005 C30.9852818,41.9656745 33.6765319,40.5606498 35.9822129,38.6429415 C34.7522219,38.0950771 33.4828268,37.6395619 32.1847073,37.2793273 C31.2032922,39.3626776 29.8105298,41.2279816 28.0892787,42.7642005 Z M37.2022611,37.5523433 L37.2022611,37.5501445 C39.5679687,35.2645058 41.364345,32.461053 42.4492414,29.3629626 C41.2708067,30.2655645 39.825383,30.755161 38.3383458,30.755894 L34.4299936,30.755894 C34.0488437,32.5156562 33.5097098,34.2376725 32.8188525,35.9014211 C34.3239345,36.3287186 35.7903491,36.8809805 37.2022611,37.5523433 Z" fill="#162650" fill-rule="nonzero"></path>
    </g>
</svg>