<?xml version="1.0" encoding="UTF-8"?>
<svg width="45px" height="45px" viewBox="0 0 45 45" version="1.1" xmlns="http://www.w3.org/2000/svg" xmlns:xlink="http://www.w3.org/1999/xlink">
    <!-- Generator: Sketch 55.2 (78181) - https://sketchapp.com -->
    <title>icon_service_6</title>
    <desc>Created with Sketch.</desc>
    <g id="icon_service_6" stroke="none" stroke-width="1" fill="none" fill-rule="evenodd">
        <path d="M1.8550476,26.509321 C1.89244156,26.7052411 1.85028172,26.9077528 1.73773306,27.0725454 C1.62555099,27.2373379 1.45177887,27.3508617 1.2556436,27.3874823 C1.20835121,27.3962712 1.16032554,27.4010319 1.11229988,27.4010319 C0.753024199,27.4002995 0.444706856,27.1457865 0.376517828,26.7934966 C0.181115822,25.7783745 0.0557358623,24.7508014 0.00111128489,23.7184676 C-0.0212517568,23.3042889 0.296597251,22.9505343 0.711230847,22.9278295 C1.12623103,22.905491 1.48037434,23.2233575 1.5027374,23.6375361 C1.55442909,24.6017557 1.67174363,25.5612145 1.8550476,26.509321 Z M5.20804381,34.4545194 C5.75868887,35.2480871 6.36322533,36.002837 7.01762057,36.7136423 C7.29807561,37.0186916 7.27791215,37.4929279 6.97252777,37.7734414 C6.66714329,38.0535888 6.19201941,38.0334474 5.91156436,37.7283981 C5.21024341,36.9674228 4.56281384,36.1588406 3.97294161,35.3088772 C3.7368461,34.968306 3.82189914,34.5006613 4.16284456,34.2648249 C4.5037899,34.0289884 4.9719482,34.1139481 5.20804381,34.4545194 Z M0.735427018,21.4271187 C0.536358886,21.411738 0.351588488,21.3176232 0.222175911,21.1660141 C0.0927632401,21.0140387 0.0289735066,20.81702 0.0454708401,20.6181704 C0.131990312,19.5858365 0.289631771,18.5604606 0.517661858,17.549733 C0.608580626,17.1450756 1.01074951,16.8901965 1.41585134,16.9810155 C1.82131967,17.0718345 2.07647879,17.4735622 1.98556002,17.8782194 C1.77366069,18.8204666 1.6273841,19.7762635 1.54856337,20.738652 C1.51630187,21.128661 1.18965418,21.4285835 0.79775032,21.4271187 C0.776853691,21.4285835 0.756323647,21.4285835 0.735427018,21.4271187 Z M11.4766728,40.3892486 L11.4766728,40.3907134 C11.7153346,40.5265757 11.8608779,40.7818211 11.856112,41.0561091 C11.8513461,41.3307634 11.6966375,41.5805156 11.4528433,41.707589 C11.2094156,41.8346624 10.9157627,41.8185493 10.6873659,41.6658415 C9.80604046,41.1220261 8.9632088,40.5188854 8.1640035,39.8604476 C7.84432138,39.5967795 7.79922859,39.124008 8.0631863,38.8046766 C8.32751069,38.4853453 8.80080155,38.4403019 9.12048367,38.70397 C9.86616416,39.3191956 10.6532714,39.8824199 11.4766728,40.3892486 Z M1.84294956,15.5458555 C1.45434515,15.4004719 1.2578433,14.9676167 1.40375321,14.5798049 C1.67650951,13.8558163 1.98665987,13.1464759 2.33237108,12.4543472 C2.51970776,12.0874091 2.96806929,11.9398282 3.33687691,12.1240297 C3.70605103,12.3082311 3.8570935,12.7550021 3.67562255,13.1248698 C3.3522744,13.7701241 3.06338735,14.432224 2.81006124,15.1078735 C2.69971228,15.4001056 2.4199904,15.5938285 2.10727386,15.5938285 C2.01672167,15.5938285 1.92726934,15.5773492 1.84294956,15.5458555 Z M2.5981619,29.304569 C2.91161171,30.2178859 3.28811799,31.1084981 3.72438148,31.9698139 C3.90071987,32.3378506 3.75041066,32.7787622 3.38636891,32.9629637 C3.02196068,33.1471651 2.57726528,33.0069084 2.38479604,32.6472944 C1.917371,31.7237237 1.51373559,30.7690254 1.17682288,29.7905239 C1.04264442,29.3983177 1.25161099,28.971688 1.64424801,28.8376567 C2.03688513,28.7032592 2.46398335,28.9123627 2.5981619,29.304569 Z M16.7697582,42.7120911 L16.7734242,42.7172181 C17.1348997,42.8182908 17.3662292,43.1705807 17.3149042,43.5419133 C17.263579,43.913612 16.9453634,44.1900973 16.5699569,44.1893663 C16.5010345,44.1889987 16.4324789,44.1794773 16.3657562,44.1608009 C15.368216,43.87809 14.3915725,43.527265 13.4420579,43.1108892 C13.07545,42.9373077 12.9130427,42.5044526 13.07545,42.13312 C13.2378573,41.7617875 13.6660554,41.5863749 14.0429283,41.7368855 C14.9282865,42.1246973 15.8393072,42.4502542 16.7697582,42.7120911 Z M4.27832609,28.8057968 C3.87908998,27.8404787 3.5627074,26.8433006 3.33321079,25.8245164 C3.24339187,25.4198592 3.49891757,25.018864 3.9043859,24.9295098 C4.30948774,24.8397894 4.71055677,25.0950347 4.80037578,25.499692 C5.01044211,26.4346151 5.30079559,27.3497631 5.66740352,28.2348822 C5.82541147,28.6179333 5.6421076,29.0562815 5.25863565,29.2141162 C4.87516371,29.3715846 4.43633404,29.1888479 4.27832609,28.8057968 Z M4.41433756,17.4988304 C4.22406802,17.4391388 4.06496022,17.3062061 3.97294161,17.1293289 C3.88092299,16.9524515 3.86295923,16.7462777 3.92344961,16.5562169 C4.23469972,15.5630671 4.62477056,14.5966504 5.089996,13.6657555 C5.27659942,13.2955216 5.72826039,13.1464759 6.09890104,13.3328746 C6.4691751,13.5192733 6.61838446,13.9704387 6.43178104,14.3406726 C6.00248313,15.1997911 5.64284077,16.0918682 5.35578673,17.0084809 C5.25753581,17.3208544 4.967549,17.5332537 4.63980146,17.5332537 C4.56318043,17.5332537 4.48729256,17.5215352 4.41433756,17.4988304 Z M4.47519452,22.6535415 C4.47702754,23.0713821 4.1426811,23.4134183 3.72438148,23.4214747 C3.52714636,23.425503 3.33651024,23.3500646 3.19499962,23.2123713 C3.0538555,23.0746779 2.9743016,22.8860821 2.97356843,22.6886972 L2.97356843,22.4891151 C2.98676631,21.5186701 3.06778664,20.5500561 3.21626283,19.5905972 C3.25182387,19.321436 3.42999528,19.0925575 3.68222154,18.9922172 C3.93481438,18.8915106 4.22186842,18.935089 4.43303459,19.1061071 C4.64420076,19.2767589 4.74648439,19.5481173 4.70029175,19.8154475 C4.56244716,20.7071583 4.48729256,21.6072919 4.47519452,22.5096227 L4.47519452,22.6535415 Z M12.7971946,37.1882448 C13.1341072,37.4303067 13.2107284,37.89905 12.9684005,38.2352268 C12.7260726,38.5717698 12.2568145,38.6483068 11.9202684,38.4062448 C11.0792698,37.8009069 10.2815309,37.1373422 9.53328416,36.4203114 C9.24549695,36.1317414 9.24109766,35.6662939 9.52301914,35.3722308 C9.8053072,35.0778015 10.2708993,35.0624208 10.5718844,35.3374413 C11.2695393,36.0050342 12.0133868,36.6235556 12.7971946,37.1882448 Z M17.9146747,39.7853754 L17.9154079,39.7853754 C18.3109779,39.9098854 18.5309427,40.3310219 18.4066626,40.7261578 C18.2820159,41.1212937 17.8607834,41.3406509 17.4648468,41.2165073 C16.4702395,40.9023027 15.5031277,40.505702 14.5745099,40.0307332 C14.2049691,39.8421373 14.0586925,39.3906057 14.2474956,39.0214704 C14.435932,38.6527012 14.8883263,38.5065852 15.2575004,38.6951811 C16.1113303,39.1320644 16.999988,39.4968054 17.9146747,39.7853754 Z M8.49725009,34.2505428 L8.49871662,34.2512752 C8.17463511,34.5101826 7.70171092,34.4570828 7.44325235,34.1329908 C6.79728913,33.3236762 6.2070504,32.4715157 5.6765687,31.5827345 C5.52369321,31.3523912 5.51049533,31.0568631 5.64174092,30.8133364 C5.77261993,30.5701758 6.02741247,30.4185666 6.3038349,30.4189322 C6.58062391,30.4196653 6.83468318,30.5720068 6.96482902,30.8155336 C7.46084953,31.6457219 8.01259445,32.4414868 8.61676432,33.1969691 C8.87485631,33.5206949 8.8213316,33.9923679 8.49725009,34.2505428 Z M22.4947077,2.90403508e-05 C30.9079931,0.00738243956 38.6162916,4.69774474 42.4818056,12.1624813 C46.3473197,19.6272178 45.7259192,28.6215954 40.870197,35.4846559 C36.014475,42.3480827 27.7346348,45.936166 19.3998034,44.7888436 C18.9950683,44.7262225 18.7149798,44.3504954 18.7710708,43.9451057 C18.8267952,43.5397161 19.1981691,43.2537094 19.6047373,43.3031471 C20.5626838,43.4338826 21.5279625,43.4997996 22.4947077,43.4994334 C31.5238944,43.4943065 39.5412433,37.7305954 42.4132499,29.180059 C45.2856231,20.6295227 42.37109,11.2015576 35.1727432,5.75754392 C27.9740298,0.313164203 18.0994451,0.068538811 10.6393403,5.14964259 C10.3317563,5.35984461 9.91602284,5.3126041 9.66343,5.03868225 L7.26068155,2.43312884 L6.10146732,11.1195275 L14.2178004,9.96012036 L11.7398973,7.28095954 C11.5899547,7.11873049 11.5191993,6.89900709 11.5463283,6.67964986 C11.5738239,6.46065882 11.696271,6.26473886 11.8814079,6.14389094 C18.8707882,1.61172948 27.9699972,2.0112599 34.5344788,7.13850555 C41.0993271,12.2657513 43.6817134,20.9902353 40.9640487,28.8592629 C38.2463841,36.7279242 30.8277059,42.0060466 22.4947077,41.9994549 L22.4833428,41.9994549 C21.8311473,41.9990888 21.1789517,41.9595385 20.5315222,41.8808043 C20.1194548,41.8313665 19.8261685,41.4574705 19.8760272,41.0462215 C19.9255193,40.6349725 20.2998259,40.3416418 20.7115267,40.3914458 C21.300299,40.4632221 21.8927374,40.4994765 22.4855425,40.4994765 L22.4947077,40.4994765 C30.0765263,40.503871 36.8499745,35.7670005 39.4400595,28.649427 C42.0305112,21.5318535 39.8836552,13.5558938 34.0692533,8.69561209 C28.2548515,3.83533035 20.0168046,3.13038445 13.4592885,6.93233173 L16.2869355,9.991614 C16.4761052,10.1959567 16.5362289,10.4885551 16.4427439,10.7511246 C16.3496254,11.0133278 16.1182959,11.2026562 15.8426067,11.2425726 L5.33122407,12.742551 C5.09879459,12.7751433 4.86416552,12.6975077 4.69735888,12.532349 C4.53091893,12.3671902 4.45099835,12.133551 4.48179342,11.9010104 L5.98341951,0.651171972 C6.02228,0.362968175 6.22391432,0.123103433 6.5014366,0.035214071 C6.77895878,-0.0523091091 7.08214356,0.0278899574 7.27937858,0.241754072 L10.3383552,3.5518872 C13.9648409,1.22611493 18.1852314,-0.0068995865 22.4947077,2.90403508e-05 Z M22.4947077,8.2499398 C22.9093412,8.2499398 23.2455207,8.58575039 23.2455207,8.99992903 L23.2455207,22.1891927 L30.5336864,29.4693615 C30.8181742,29.7637909 30.8141415,30.2314355 30.5245213,30.520738 C30.2349009,30.8100405 29.7667426,30.8140688 29.4719899,30.5298932 L21.9638594,23.0300009 C21.8230819,22.8893779 21.7438946,22.6985848 21.7438946,22.4997351 L21.7438946,8.99992903 C21.7438946,8.58575039 22.0800741,8.2499398 22.4947077,8.2499398 Z" fill="#162650" fill-rule="nonzero"></path>
    </g>
</svg>