<?xml version="1.0" encoding="UTF-8"?>
<svg width="70px" height="70px" viewBox="0 0 70 70" version="1.1" xmlns="http://www.w3.org/2000/svg" xmlns:xlink="http://www.w3.org/1999/xlink">
    <!-- Generator: Sketch 55.2 (78181) - https://sketchapp.com -->
    <title>service_2</title>
    <desc>Created with Sketch.</desc>
    <g id="service_2" stroke="none" stroke-width="1" fill="none" fill-rule="evenodd">
        <g id="Group-6" transform="translate(2.000000, 0.000000)">
            <path d="M4,23.0004487 C4,24.1043303 3.10433027,25 2.00044873,25 C0.896567198,25 0,24.1043303 0,23.0004487 C0,21.8956697 0.896567198,21 2.00044873,21 C3.10433027,21 4,21.8956697 4,23.0004487 Z" id="Stroke-1-Copy-3" stroke="#B4CBFF" stroke-width="0.76408227"></path>
            <path d="M67,23.0004487 C67,24.1043303 66.1043303,25 65.0004487,25 C63.8965672,25 63,24.1043303 63,23.0004487 C63,21.8956697 63.8965672,21 65.0004487,21 C66.1043303,21 67,21.8956697 67,23.0004487 Z" id="Stroke-1-Copy-4" stroke="#B4CBFF" stroke-width="0.76408227"></path>
            <path d="M43,68.0004487 C43,69.1043303 42.1043303,70 41.0004487,70 C39.8965672,70 39,69.1043303 39,68.0004487 C39,66.8956697 39.8965672,66 41.0004487,66 C42.1043303,66 43,66.8956697 43,68.0004487 Z" id="Stroke-1-Copy-5" stroke="#B4CBFF" stroke-width="0.848980322"></path>
            <path d="M29.5002174,2.50014493 L29.5002174,1.0658141e-13 L29.5002174,2.50014493 L32,2.50014493 L29.5002174,2.50014493 Z M29.5002174,2.50014493 L29.5002174,5 L29.5002174,2.50014493 L27,2.50014493 L29.5002174,2.50014493 Z" id="Combined-Shape-Copy-2" stroke="#B4CBFF" stroke-width="0.76408227"></path>
            <path d="M6.50021736,56.5001449 L6.50021736,54 L6.50021736,56.5001449 L9,56.5001449 L6.50021736,56.5001449 Z M6.50021736,56.5001449 L6.50021736,59 L6.50021736,56.5001449 L4,56.5001449 L6.50021736,56.5001449 Z" id="Combined-Shape-Copy-3" stroke="#B4CBFF" stroke-width="0.76408227"></path>
            <rect id="Rectangle" fill="#999999" fill-rule="nonzero" x="9" y="33.2720937" width="50.942625" height="1"></rect>
            <path d="M53.58675,33.4713125 L50.0024063,33.4713125 C50.0024063,42.0353281 43.0353281,49.0024063 34.4713125,49.0024063 C25.9072969,49.0024063 18.9402188,42.0353281 18.9402188,33.4713125 L15.355875,33.4713125 C15.355875,44.0283125 23.9143125,52.58675 34.4713125,52.58675 C45.0283125,52.58675 53.58675,44.0283125 53.58675,33.4713125 L53.58675,33.4713125" id="Path" fill="#000000" fill-rule="nonzero"></path>
            <path d="M53.58675,33.4713125 L50.0024063,33.4713125 C50.0024063,24.9072969 43.0353281,17.9402187 34.4713125,17.9402187 C25.9072969,17.9402187 18.9402188,24.9072969 18.9402188,33.4713125 L15.355875,33.4713125 C15.355875,22.9143125 23.9143125,14.355875 34.4713125,14.355875 C45.0283125,14.355875 53.58675,22.9143125 53.58675,33.4713125 L53.58675,33.4713125" id="Path" fill="#CCCCCC" fill-rule="nonzero"></path>
            <path d="M34.4705156,45.62525 L34.4705156,42.0409062 C29.7450469,42.0409062 25.900125,38.1967812 25.900125,33.4705156 C25.900125,28.74425 29.74425,24.900125 34.4705156,24.900125 L34.4705156,21.3157812 C27.7576406,21.3157812 22.3165781,26.7576406 22.3165781,33.4697187 C22.3165781,40.1817969 27.7584375,45.62525 34.4705156,45.62525 L34.4705156,45.62525" id="Path" fill="#F91E1E" fill-rule="nonzero" opacity="0.349586124"></path>
            <path d="M34.4721094,45.62525 L34.4721094,42.0409062 C39.1975781,42.0409062 43.0425,38.1967812 43.0425,33.4705156 C43.0425,28.74425 39.198375,24.900125 34.4721094,24.900125 L34.4721094,21.3157812 C41.1849844,21.3157812 46.6260469,26.7576406 46.6260469,33.4697187 C46.6260469,40.1817969 41.1841875,45.62525 34.4721094,45.62525 L34.4721094,45.62525" id="Path" fill="#6576EA" fill-rule="nonzero"></path>
            <rect id="Rectangle" fill="#000000" fill-rule="nonzero" x="34.2720937" y="8" width="1" height="50.942625"></rect>
            <path d="M26.8350643,45.7522611 C27.4300201,45.1987095 28.2297663,44.9149921 29.0501668,44.9686612 C29.877672,45.0309049 30.6422944,45.4307951 31.1548407,46.0660426 L32.1868091,47.3084842 L32.1949417,35.5773399 C32.1959799,34.3523304 33.1458647,33.3351595 34.332691,33.3351595 C35.5197526,33.3351595 36.4697196,34.3531939 36.4697196,35.5788839 L36.4697196,41.6751727 C36.8557788,41.2351007 37.4163376,40.9589478 38.04109,40.9589478 L38.0848257,40.9589478 C39.0288923,40.9589478 39.8225411,41.5900873 40.10851,42.4638507 C40.4913755,41.9241929 41.1005485,41.5726346 41.8006742,41.5726346 C42.8478797,41.5726346 43.6922315,42.3643203 43.8761652,43.3940327 C44.2706343,42.9096094 44.8630319,42.6017843 45.5258946,42.6017843 L45.5669869,42.6017843 C46.7517587,42.6017843 47.6928349,43.6021769 47.695603,44.824627 C47.7010339,47.1574095 47.7011415,47.9011805 47.6975266,50.6118455 C47.6958168,51.8589082 47.6946569,52.8037833 47.6934418,54.0260563 C47.6904337,57.1427159 45.2940909,59.7 42.3291066,59.7 L36.2914235,59.7 C34.3446867,59.7 32.5483324,58.5734102 31.603552,56.7777687 L26.1158363,46.3470939 L26.5538758,45.9848154 L26.8350643,45.752261 Z M30.414505,36.4279086 C29.791941,36.4279086 29.283847,35.9256109 29.2838519,35.3046044 C29.2771705,33.5170958 30.2369641,31.863377 31.7980449,30.9694003 C33.3566061,30.0768666 35.2777764,30.0768666 36.8363377,30.9694003 C38.3974914,31.8634187 39.3572507,33.5172102 39.3502978,35.301988 C39.3502978,35.9256326 38.8424175,36.4279086 38.2196372,36.4279086 C37.597064,36.4279086 37.0890093,35.9256013 37.0890157,35.2989799 C37.0932169,34.3213692 36.5676038,33.4150088 35.7094332,32.9234348 C34.8486311,32.4303534 33.7857516,32.4303534 32.9249493,32.9234348 C32.0667985,33.4149975 31.5411165,34.3213858 31.545133,35.301988 C31.545133,35.9256222 31.0372953,36.4279086 30.414505,36.4279086 Z" id="Combined-Shape" stroke="#FFFFFF" stroke-width="1.4" fill="#FF5F02" fill-rule="nonzero"></path>
        </g>
    </g>
</svg>