<?xml version="1.0" encoding="UTF-8"?>
<svg width="70px" height="70px" viewBox="0 0 70 70" version="1.1" xmlns="http://www.w3.org/2000/svg" xmlns:xlink="http://www.w3.org/1999/xlink">
    <!-- Generator: Sketch 55.2 (78181) - https://sketchapp.com -->
    <title>service_3</title>
    <desc>Created with Sketch.</desc>
    <g id="service_3" stroke="none" stroke-width="1" fill="none" fill-rule="evenodd">
        <g id="Group-7" transform="translate(2.000000, 0.000000)">
            <path d="M4,26.0004487 C4,27.1043303 3.10433027,28 2.00044873,28 C0.896567198,28 0,27.1043303 0,26.0004487 C0,24.8956697 0.896567198,24 2.00044873,24 C3.10433027,24 4,24.8956697 4,26.0004487 Z" id="Stroke-1-Copy-8" stroke="#B4CBFF" stroke-width="0.76408227"></path>
            <path d="M67,26.0004487 C67,27.1043303 66.1043303,28 65.0004487,28 C63.8965672,28 63,27.1043303 63,26.0004487 C63,24.8956697 63.8965672,24 65.0004487,24 C66.1043303,24 67,24.8956697 67,26.0004487 Z" id="Stroke-1-Copy-7" stroke="#B4CBFF" stroke-width="0.76408227"></path>
            <path d="M29.5002174,2.50014493 L29.5002174,1.0658141e-13 L29.5002174,2.50014493 L32,2.50014493 L29.5002174,2.50014493 Z M29.5002174,2.50014493 L29.5002174,5 L29.5002174,2.50014493 L27,2.50014493 L29.5002174,2.50014493 Z" id="Combined-Shape-Copy-5" stroke="#B4CBFF" stroke-width="0.76408227"></path>
            <path d="M6.50021736,64.5001449 L6.50021736,62 L6.50021736,64.5001449 L9,64.5001449 L6.50021736,64.5001449 Z M6.50021736,64.5001449 L6.50021736,67 L6.50021736,64.5001449 L4,64.5001449 L6.50021736,64.5001449 Z" id="Combined-Shape-Copy-4" stroke="#B4CBFF" stroke-width="0.76408227"></path>
            <rect id="Rectangle" fill="#000000" fill-rule="nonzero" x="13.7080858" y="51.6984167" width="3.05118129" height="6.12566667"></rect>
            <rect id="Rectangle" fill="#FF5F02" fill-rule="nonzero" x="18.6642495" y="48.19705" width="3.05118129" height="9.62626667"></rect>
            <rect id="Rectangle" fill="#000000" fill-rule="nonzero" x="23.6242339" y="44.2563833" width="3.05118129" height="13.5638667"></rect>
            <rect id="Rectangle" fill="#FF5F02" fill-rule="nonzero" x="28.5826901" y="40.3233833" width="3.05118129" height="17.5014667"></rect>
            <rect id="Rectangle" fill="#000000" fill-rule="nonzero" x="33.5403821" y="37.6967833" width="3.05118129" height="20.125"></rect>
            <path d="M31.8455361,32.14765 L28.4168733,32.6459833 L29.199345,33.6441833 L11,48.1863167 C11.0275088,48.1962833 11.6739649,48.9660167 11.6739649,48.9660167 L29.7785575,34.3840167 L30.5610292,35.3822167 L31.8455361,32.14765 L31.8455361,32.14765 Z" id="Path" fill="#000000" fill-rule="nonzero"></path>
            <polygon id="Path" fill="#999999" fill-rule="nonzero" points="11.9032047 40.4636833 11.1390721 40.4636833 11.1390721 19.4915167 40.4817622 19.4915167 40.4817622 20.2581833 11.9032047 20.2581833"></polygon>
            <ellipse id="Oval" fill="#999999" fill-rule="nonzero" cx="15.0743548" cy="22.8249833" rx="1.03616374" ry="1.0396"></ellipse>
            <ellipse id="Oval" fill="#999999" fill-rule="nonzero" cx="18.7727563" cy="22.8249833" rx="1.03616374" ry="1.0396"></ellipse>
            <ellipse id="Oval" fill="#999999" fill-rule="nonzero" cx="22.4696296" cy="22.8249833" rx="1.03616374" ry="1.0396"></ellipse>
            <rect id="Rectangle" fill="#999999" fill-rule="nonzero" x="11.5211384" y="25.3358167" width="27.1542144" height="1"></rect>
            <polygon id="Path" fill="#999999" fill-rule="nonzero" points="50.8029006 49.7664167 41.8174659 49.7664167 41.8174659 48.99975 50.038768 48.99975 50.038768 38.23575 50.8029006 38.23575"></polygon>
            <path d="M47.6179961,15.02185 C40.832499,15.02185 35.3315088,20.5410833 35.3315088,27.3490833 C35.3315088,34.1570833 40.832499,39.6763167 47.6179961,39.6763167 C54.4004366,39.6763167 59.8998986,34.16245 59.9044834,27.3575167 L47.6179961,27.3575167 L47.6179961,15.02185 Z" id="Path" fill="#CCCCCC" fill-rule="nonzero"></path>
            <path d="M56.3100039,18.6366833 L47.6179961,27.3582833 L59.9044834,27.3582833 C59.9044834,27.3552167 59.9052476,27.35215 59.9052476,27.3490833 C59.9044834,23.9473833 58.5313372,20.8676833 56.3100039,18.6366833 Z" id="Path" fill="#999999" fill-rule="nonzero"></path>
            <path d="M47.6179961,15.02185 L47.6179961,27.3582833 L56.3100039,18.6366833 C54.0863782,16.4033833 51.013037,15.02185 47.6179961,15.02185 Z" id="Path" fill="#000000" fill-rule="nonzero"></path>
            <path d="M56.3100039,36.0522833 L47.6179961,27.33145 L59.9044834,27.33145 C59.9044834,27.3345167 59.9052476,27.3375833 59.9052476,27.34065 C59.9044834,30.74235 58.5313372,33.82205 56.3100039,36.0522833 Z" id="Path" fill="#999999" fill-rule="nonzero"></path>
            <path d="M47.6179961,39.6671167 L47.6179961,27.33145 L56.3100039,36.0522833 C54.0863782,38.2855833 51.013037,39.6671167 47.6179961,39.6671167 Z" id="Path" fill="#DEDEDE" fill-rule="nonzero"></path>
            <ellipse id="Oval" fill="#000000" fill-rule="nonzero" cx="50.4200702" cy="48.1587167" rx="3.97043275" ry="3.9836"></ellipse>
            <path d="M57.2697544,60.9773833 C57.2697544,60.9773833 57.2697544,61.1629167 57.2697544,57.4514833 C57.2697544,53.74005 53.2313138,53.6718167 53.2313138,53.6718167 L47.6095906,53.6718167 C47.6095906,53.6718167 43.5711501,53.71705 43.5711501,57.4514833 C43.5711501,61.1636833 43.5711501,60.9773833 43.5711501,60.9773833 L57.2697544,60.9773833 Z" id="Path" fill="#000000" fill-rule="nonzero"></path>
        </g>
        <path d="M37,68.0004487 C37,69.1043303 36.1043303,70 35.0004487,70 C33.8965672,70 33,69.1043303 33,68.0004487 C33,66.8956697 33.8965672,66 35.0004487,66 C36.1043303,66 37,66.8956697 37,68.0004487 Z" id="Stroke-1-Copy-4" stroke="#B4CBFF" stroke-width="0.76408227"></path>
    </g>
</svg>