<?xml version="1.0" encoding="UTF-8"?>
<svg width="70px" height="70px" viewBox="0 0 70 70" version="1.1" xmlns="http://www.w3.org/2000/svg" xmlns:xlink="http://www.w3.org/1999/xlink">
    <!-- Generator: Sketch 55.2 (78181) - https://sketchapp.com -->
    <title>service_1</title>
    <desc>Created with Sketch.</desc>
    <g id="service_1" stroke="none" stroke-width="1" fill="none" fill-rule="evenodd">
        <g id="Group-5" transform="translate(2.000000, 0.000000)">
            <path d="M4,23.0004487 C4,24.1043303 3.10433027,25 2.00044873,25 C0.896567198,25 0,24.1043303 0,23.0004487 C0,21.8956697 0.896567198,21 2.00044873,21 C3.10433027,21 4,21.8956697 4,23.0004487 Z" id="Stroke-1" stroke="#B4CBFF" stroke-width="0.76408227"></path>
            <path d="M67,23.0004487 C67,24.1043303 66.1043303,25 65.0004487,25 C63.8965672,25 63,24.1043303 63,23.0004487 C63,21.8956697 63.8965672,21 65.0004487,21 C66.1043303,21 67,21.8956697 67,23.0004487 Z" id="Stroke-1-Copy-2" stroke="#B4CBFF" stroke-width="0.76408227"></path>
            <path d="M43,68.0004487 C43,69.1043303 42.1043303,70 41.0004487,70 C39.8965672,70 39,69.1043303 39,68.0004487 C39,66.8956697 39.8965672,66 41.0004487,66 C42.1043303,66 43,66.8956697 43,68.0004487 Z" id="Stroke-1-Copy" stroke="#B4CBFF" stroke-width="0.848980322"></path>
            <path d="M29.5002174,2.50014493 L29.5002174,1.0658141e-13 L29.5002174,2.50014493 L32,2.50014493 L29.5002174,2.50014493 Z M29.5002174,2.50014493 L29.5002174,5 L29.5002174,2.50014493 L27,2.50014493 L29.5002174,2.50014493 Z" id="Combined-Shape" stroke="#B4CBFF" stroke-width="0.76408227"></path>
            <path d="M6.50021736,56.5001449 L6.50021736,54 L6.50021736,56.5001449 L9,56.5001449 L6.50021736,56.5001449 Z M6.50021736,56.5001449 L6.50021736,59 L6.50021736,56.5001449 L4,56.5001449 L6.50021736,56.5001449 Z" id="Combined-Shape-Copy" stroke="#B4CBFF" stroke-width="0.76408227"></path>
            <polygon id="Rectangle" fill="#CCCCCC" fill-rule="nonzero" transform="translate(47.979870, 48.279482) rotate(135.000000) translate(-47.979870, -48.279482) " points="46.2029742 46.1041523 49.730551 46.1255127 49.756766 50.4548115 46.2291893 50.4334511"></polygon>
            <polygon id="Rectangle" fill="#000000" fill-rule="nonzero" transform="translate(51.313966, 51.524202) rotate(135.000000) translate(-51.313966, -51.524202) " points="47.0097541 49.012892 55.5880792 49.064836 55.618178 54.0355123 47.0398529 53.9835684"></polygon>
            <polygon id="Rectangle" fill="#FF5F02" fill-rule="nonzero" transform="translate(57.502883, 57.607147) rotate(135.000000) translate(-57.502883, -57.607147) " points="53.1760973 51.3678792 61.7544224 51.4198232 61.8296686 63.8464138 53.2513435 63.7944698"></polygon>
            <path d="M34.9695535,51.453125 C24.5011438,51.453125 16.014821,43.0689574 16.014821,32.7265625 C16.014821,22.3841676 24.5011438,14 34.9695535,14 C45.4379632,14 53.924286,22.3841676 53.924286,32.7265625 C53.924286,43.0689574 45.4379632,51.453125 34.9695535,51.453125 Z M34.9695535,48.5046875 C43.7897455,48.5046875 50.9399239,41.4405803 50.9399239,32.7265625 C50.9399239,24.0125447 43.7897455,16.9484375 34.9695535,16.9484375 C26.1493615,16.9484375 18.9991831,24.0125447 18.9991831,32.7265625 C18.9991831,41.4405803 26.1493615,48.5046875 34.9695535,48.5046875 Z" id="Combined-Shape" fill="#000000" fill-rule="nonzero"></path>
            <rect id="Rectangle" fill="#FF5F02" fill-rule="nonzero" x="28.1934383" y="32.914625" width="3.63043621" height="7.09059375"></rect>
            <rect id="Rectangle" fill="#6576EA" fill-rule="nonzero" x="35.0421461" y="28.8633125" width="3.63043621" height="11.1427031"></rect>
            <rect id="Rectangle" fill="#000000" fill-rule="nonzero" x="41.8956934" y="24.3043906" width="3.63043621" height="15.701625"></rect>
            <rect id="Rectangle" fill="#000000" fill-rule="nonzero" x="24.6993148" y="39.6043906" width="20.8260082" height="1"></rect>
        </g>
    </g>
</svg>